<svg xmlns="http://www.w3.org/2000/svg" viewBox="0 0 101.57 254.98"><defs><style>.cls-1{fill:#010101;}</style></defs><title>bordi_lower</title><g id="Layer_2" data-name="Layer 2"><g id="_3_-_Alfabeto" data-name="3 - Alfabeto"><path class="cls-1" d="M92.16,20.27c-6.09,1.25-25.37.14-25.37.14L74.7,4.48c15,1.59,23.37-1.4,26.87-3.15Z"/><path class="cls-1" d="M49,19.2c6,1.44,25.35.9,25.35.9L67,4C52,5.08,43.63,1.85,40.19,0Z"/><polygon class="cls-1" points="13.11 22.22 34.9 15.73 18.59 0.82 13.11 22.22"/><rect class="cls-1" x="87.11" y="27.58" width="14.36" height="14.36"/><rect class="cls-1" x="30.46" y="27.58" width="14.36" height="14.36"/><rect class="cls-1" x="39.24" y="27.58" width="14.36" height="14.36"/><rect class="cls-1" x="16.1" y="27.58" width="14.36" height="14.36"/><rect class="cls-1" x="2.08" y="27.58" width="14.36" height="14.36"/><rect class="cls-1" x="79.13" y="27.58" width="14.36" height="14.36"/><rect class="cls-1" x="64.77" y="27.58" width="14.36" height="14.36"/><rect class="cls-1" x="50.41" y="27.58" width="14.36" height="14.36"/><path class="cls-1" d="M59.74,60.29c-1.52-2.78-4.15-9.5-3.27-21.66l-13.1-6s-.39,15.64.79,20.53Z"/><path class="cls-1" d="M85.59,58.53c1.45-2.82,3.93-9.6,2.76-21.73l13-6.28s.75,15.62-.31,20.55Z"/><path class="cls-1" d="M52.89,54.57C55,57,60.33,61.78,72,65.23l1,14.36s-14.78-5.12-19-7.94Z"/><path class="cls-1" d="M91.45,53.56c-1.92,2.52-7,7.66-18.46,11.8l-.11,14.4s14.44-6,18.42-9.08Z"/><rect class="cls-1" x="86.85" y="240.37" width="14.61" height="14.61"/><rect class="cls-1" x="29.22" y="240.37" width="14.61" height="14.61"/><rect class="cls-1" x="38.15" y="240.37" width="14.61" height="14.61"/><rect class="cls-1" x="14.61" y="240.37" width="14.61" height="14.61"/><rect class="cls-1" y="240.37" width="14.61" height="14.61"/><rect class="cls-1" x="78.74" y="240.37" width="14.61" height="14.61"/><rect class="cls-1" x="64.13" y="240.37" width="14.61" height="14.61"/><rect class="cls-1" x="49.52" y="240.37" width="14.61" height="14.61"/><path class="cls-1" d="M59,221.69c-1.55,2.83-4.23,9.67-3.32,22l-13.33,6.08s-.4-15.91.8-20.89Z"/><path class="cls-1" d="M85.31,223.49c1.47,2.87,4,9.77,2.81,22.11L101.3,252s.77-15.9-.31-20.91Z"/><path class="cls-1" d="M52,227.51c2.11-2.43,7.57-7.34,19.47-10.84l1-14.61s-15,5.21-19.28,8.07Z"/><path class="cls-1" d="M91.27,228.53c-2-2.55-7.11-7.79-18.77-12l-.13-14.64s14.7,6.12,18.76,9.24Z"/><path class="cls-1" d="M57.06,161.34c1.25-2.91,4.94-9.15,15.07-16l-3.4-14S56.15,140.69,53,144.65Z"/><path class="cls-1" d="M92.16,166.78c-1.32,2.88-5.15,9-15.44,15.63l3.07,14.11s12.79-9.08,16-13Z"/><path class="cls-1" d="M57.34,152.4c-.61,3.12-1.09,10.35,3.44,21.71l-10.72,9.68S45,169,44.6,163.92Z"/><path class="cls-1" d="M82.56,180.81c-3.17.22-10.39-.19-21.11-6.07l-10.92,9.44s14.09,6.89,19,7.86Z"/><path class="cls-1" d="M66,146.66c3.17.15,10.31,1.41,20.25,8.5l12-8.1s-13.19-8.49-18-10Z"/><path class="cls-1" d="M87.57,177.93c1-3,2.28-10.14-.92-22l11.76-8.38s3.37,15.33,3.15,20.37Z"/><path class="cls-1" d="M59.74,116.25c-.73-3.1-1.5-10.32,2.55-21.88L51.17,85.12s-4.51,15.06-4.66,20.12Z"/><rect class="cls-1" x="70.28" y="111.52" width="16.84" height="14.44"/><rect class="cls-1" x="57.45" y="111.52" width="14.44" height="14.44"/><rect class="cls-1" x="87.13" y="111.52" width="14.44" height="14.44"/><rect class="cls-1" x="43.01" y="111.52" width="14.44" height="14.44"/></g></g></svg>