<svg xmlns="http://www.w3.org/2000/svg" viewBox="0 0 254.98 101.57"><defs><style>.cls-1{fill:#010101;}</style></defs><title>bordi_lower</title><g id="Layer_2" data-name="Layer 2"><g id="_3_-_Alfabeto" data-name="3 - Alfabeto"><path class="cls-1" d="M234.71,92.16c-1.25-6.09-.14-25.37-.14-25.37L250.5,74.7c-1.59,15,1.39,23.37,3.15,26.87Z"/><path class="cls-1" d="M235.77,49c-1.43,6-.89,25.35-.89,25.35L251,67c-1.14-15,2.1-23.32,3.95-26.76Z"/><polygon class="cls-1" points="232.76 13.11 239.24 34.9 254.16 18.59 232.76 13.11"/><rect class="cls-1" x="213.04" y="87.11" width="14.36" height="14.36"/><rect class="cls-1" x="213.04" y="30.46" width="14.36" height="14.36"/><rect class="cls-1" x="213.04" y="39.24" width="14.36" height="14.36"/><rect class="cls-1" x="213.04" y="16.1" width="14.36" height="14.36"/><rect class="cls-1" x="213.04" y="2.08" width="14.36" height="14.36"/><rect class="cls-1" x="213.04" y="79.13" width="14.36" height="14.36"/><rect class="cls-1" x="213.04" y="64.77" width="14.36" height="14.36"/><rect class="cls-1" x="213.04" y="50.41" width="14.36" height="14.36"/><path class="cls-1" d="M194.69,59.74c2.77-1.52,9.5-4.15,21.66-3.27l6-13.1s-15.63-.39-20.52.79Z"/><path class="cls-1" d="M196.45,85.59c2.82,1.45,9.6,3.93,21.73,2.76l6.27,13s-15.62.75-20.54-.31Z"/><path class="cls-1" d="M200.41,52.89C198,55,193.2,60.33,189.75,72l-14.36,1s5.12-14.78,7.94-19Z"/><path class="cls-1" d="M201.41,91.45c-2.51-1.92-7.66-7-11.8-18.46l-14.39-.11s6,14.44,9.08,18.42Z"/><rect class="cls-1" y="86.85" width="14.61" height="14.61"/><rect class="cls-1" y="29.22" width="14.61" height="14.61"/><rect class="cls-1" y="38.15" width="14.61" height="14.61"/><rect class="cls-1" y="14.61" width="14.61" height="14.61"/><rect class="cls-1" width="14.61" height="14.61"/><rect class="cls-1" y="78.74" width="14.61" height="14.61"/><rect class="cls-1" y="64.13" width="14.61" height="14.61"/><rect class="cls-1" y="49.52" width="14.61" height="14.61"/><path class="cls-1" d="M33.29,59c-2.83-1.55-9.67-4.23-22-3.32L5.17,42.36s15.91-.4,20.88.8Z"/><path class="cls-1" d="M31.48,85.31c-2.86,1.47-9.76,4-22.1,2.81L3,101.3s15.9.77,20.9-.31Z"/><path class="cls-1" d="M27.47,52c2.43,2.11,7.34,7.57,10.84,19.47l14.61,1s-5.21-15-8.07-19.28Z"/><path class="cls-1" d="M26.44,91.27c2.56-2,7.8-7.11,12-18.77l14.64-.13S47,87.07,43.86,91.13Z"/><path class="cls-1" d="M93.64,57.06c2.91,1.25,9.15,4.94,16,15.07l14-3.4S114.29,56.15,110.33,53Z"/><path class="cls-1" d="M88.2,92.16c-2.88-1.32-9-5.15-15.63-15.44L58.46,79.79s9.08,12.79,13,16Z"/><path class="cls-1" d="M102.58,57.34c-3.12-.61-10.35-1.09-21.71,3.44L71.19,50.06S86,45,91.06,44.6Z"/><path class="cls-1" d="M74.16,82.56c-.21-3.17.2-10.39,6.08-21.11L70.79,50.53s-6.89,14.09-7.85,19Z"/><path class="cls-1" d="M108.32,66c-.15,3.17-1.41,10.31-8.51,20.25l8.1,12s8.49-13.19,10-18Z"/><path class="cls-1" d="M77,87.57c3,1,10.15,2.28,22-.92l8.38,11.76S92.05,101.78,87,101.56Z"/><path class="cls-1" d="M138.73,59.74c3.1-.73,10.32-1.5,21.87,2.55l9.26-11.12s-15.06-4.51-20.12-4.66Z"/><rect class="cls-1" x="129.02" y="70.28" width="14.44" height="16.84"/><rect class="cls-1" x="129.02" y="57.45" width="14.44" height="14.44"/><rect class="cls-1" x="129.02" y="87.13" width="14.44" height="14.44"/><rect class="cls-1" x="129.02" y="43.01" width="14.44" height="14.44"/></g></g></svg>