<svg xmlns="http://www.w3.org/2000/svg" viewBox="0 0 110.87 359.03"><defs><style>.cls-1{fill:#010101;}</style></defs><title>bordi_upper</title><g id="Layer_2" data-name="Layer 2"><g id="_3_-_Alfabeto" data-name="3 - Alfabeto"><rect class="cls-1" x="25.42" y="120.81" width="13.61" height="13.61"/><rect class="cls-1" x="15.59" y="120.81" width="13.61" height="13.61"/><rect class="cls-1" x="2.74" y="120.81" width="13.61" height="13.61"/><rect class="cls-1" x="39.04" y="120.81" width="13.61" height="13.61"/><rect class="cls-1" x="52.65" y="120.81" width="13.61" height="13.61"/><rect class="cls-1" x="66.26" y="120.81" width="13.61" height="13.61"/><rect class="cls-1" x="78.36" y="120.81" width="13.61" height="13.61"/><rect class="cls-1" x="91.97" y="120.81" width="13.61" height="13.61"/><rect class="cls-1" x="97.26" y="120.81" width="13.61" height="13.61"/><path class="cls-1" d="M17.53,103.88c2-2.24,7.16-6.74,18.28-9.83L37,80.46S22.88,85.1,18.9,87.72Z"/><path class="cls-1" d="M61.94,88.38c3-.56,9.78-1,20.49,3.34l9.19-10.09s-14-4.89-18.75-5.25Z"/><path class="cls-1" d="M64.27,88.4c-2.94-.58-9.77-1.06-20.51,3.19L34.64,81.45s14-4.8,18.78-5.12Z"/><path class="cls-1" d="M107.05,104.36c-1.91-2.31-6.91-7-17.92-10.48l-.66-13.63s13.9,5.15,17.8,7.9Z"/><path class="cls-1" d="M22.79,98.94c-1.9,2.33-5.55,8.12-6.89,19.59L2.65,121.77s2.41-14.63,4.38-19Z"/><path class="cls-1" d="M99.74,96.56a24.36,24.36,0,0,1,1.54,7.53,18,18,0,0,1-3.18,9.71,11.64,11.64,0,0,1-8.6,4.36c-3.41,0-4.32-3.22-6.5-7.51s4.27-7.56,4.3-2.18,4.33,3.22,4.33,3.22,4.27-7.57-2.2-9.69c-9.72-3.18-11.28,7.06-11.28,7.06s2.86,25.86,25.37,10.11c8.41-5.88,8-18.55,6.32-27.7Z"/><rect class="cls-1" x="13.85" y="345.18" width="13.85" height="13.85"/><rect class="cls-1" y="345.18" width="13.85" height="13.85"/><rect class="cls-1" x="27.7" y="345.18" width="13.85" height="13.85"/><rect class="cls-1" x="41.55" y="345.18" width="13.85" height="13.85"/><rect class="cls-1" x="55.39" y="345.18" width="13.85" height="13.85"/><rect class="cls-1" x="69.24" y="345.18" width="13.85" height="13.85"/><rect class="cls-1" x="83.09" y="345.18" width="13.85" height="13.85"/><rect class="cls-1" x="96.94" y="345.18" width="13.85" height="13.85"/><path class="cls-1" d="M15.92,318.24c-1.46,2.68-4,9.17-3.15,20.89L.14,344.89S-.24,329.81.9,325.1Z"/><path class="cls-1" d="M40.85,320.72c1.4,2.72,3.79,9.26,2.67,20.95L56,347.72s.72-15.06-.3-19.81Z"/><path class="cls-1" d="M9.32,324.53c2-2.31,7.18-7,18.45-10.28l1-13.85s-14.25,4.94-18.28,7.66Z"/><path class="cls-1" d="M46.5,326.27c-1.85-2.43-6.74-7.39-17.8-11.39L28.59,301s13.92,5.8,17.77,8.76Z"/><path class="cls-1" d="M93.12,319.69c1.66,2.56,4.68,8.83,4.72,20.59l13,4.78s-.77-15.06-2.26-19.68Z"/><path class="cls-1" d="M61.07,324c2-2.31,7.16-7,18.42-10.34l.92-13.85s-14.24,5-18.25,7.73Z"/><path class="cls-1" d="M52.47,338.32c.79-2.94,3.43-9.39,12.13-17.28l-5.16-12.89S48.76,318.8,46.33,323Z"/><path class="cls-1" d="M98.52,324.82c-1.9-2.38-6.88-7.25-18-11.05l-.37-13.88s14,5.54,17.92,8.43Z"/><path class="cls-1" d="M22.52,268.54c2.45,1.75,8.49,5,20.07,5.56l4.14,13s-14.8-1.41-19.29-3.08Z"/><path class="cls-1" d="M68.61,277.34c3-.19,9.76-1.45,19.1-8.3l11.43,7.55s-12.4,8.2-17,9.72Z"/><path class="cls-1" d="M69,277.28c-2.92.74-9.73,1.59-20.73-2.07l-8.57,10.67s14.32,4,19.1,4.09Z"/><path class="cls-1" d="M26,272c-2.24-2-6.75-7.19-9.84-18.35L2.54,252.44s4.65,14.12,7.26,18.13Z"/><path class="cls-1" d="M85.28,270.61c2.46-1.73,7.54-6.35,11.92-17.09l13.67.44s-6.26,13.48-9.32,17.16Z"/><path class="cls-1" d="M22.52,235.93c2.45-1.75,8.49-5,20.07-5.56l4.14-13s-14.8,1.42-19.29,3.08Z"/><path class="cls-1" d="M68.61,227.14c3,.18,9.76,1.45,19.1,8.29l11.43-7.54s-12.4-8.2-17-9.72Z"/><path class="cls-1" d="M69,227.2c-2.92-.75-9.73-1.6-20.73,2.06l-8.57-10.67s14.32-4,19.1-4.08Z"/><path class="cls-1" d="M26,232.52c-2.24,2-6.75,7.19-9.84,18.35L2.54,252s4.65-14.13,7.26-18.13Z"/><path class="cls-1" d="M85.28,233.86c2.46,1.73,7.54,6.35,11.92,17.09l13.67-.44s-6.26-13.48-9.32-17.16Z"/><path class="cls-1" d="M15.77,244.13A24.4,24.4,0,0,1,23.18,242a18.11,18.11,0,0,1,10,2.47,11.69,11.69,0,0,1,5,8.29c.26,3.4-2.89,4.56-7,7.06s-7.89-3.72-2.5-4.14,2.89-4.57,2.89-4.57-7.88-3.72-9.53,2.92c-2.46,9.95,7.9,10.77,7.9,10.77s25.66-4.78,8.24-26.14c-6.5-8-19.14-6.62-28.18-4.28Z"/><path class="cls-1" d="M85.15,160.86c2.6-1.55,8.91-4.29,20.51-3.9l5.21-12.69s-14.9.2-19.51,1.5Z"/><path class="cls-1" d="M74.75,153.4c-3.88,2.83-13.24,14.42-13.24,14.42l13.2,3.74c6.86-9.37,12.92-12.63,15.73-13.71Z"/><rect class="cls-1" x="73.32" y="190.96" width="13.68" height="13.68"/><rect class="cls-1" x="83.2" y="190.96" width="13.68" height="13.68"/><rect class="cls-1" x="59.63" y="190.96" width="13.68" height="13.68"/><rect class="cls-1" x="45.95" y="190.96" width="13.68" height="13.68"/><rect class="cls-1" x="32.26" y="190.96" width="13.68" height="13.68"/><rect class="cls-1" x="20.1" y="190.96" width="13.68" height="13.68"/><rect class="cls-1" x="8.7" y="190.96" width="13.68" height="13.68"/><rect class="cls-1" x="1.09" y="190.96" width="13.68" height="13.68"/><rect class="cls-1" x="96.88" y="190.96" width="13.68" height="13.68"/><path class="cls-1" d="M19.38,167.31c-1.71,2.48-4.88,8.59-5.27,20.19l-13,4.34S2.3,177,3.91,172.47Z"/><path class="cls-1" d="M16.34,170.39c2-2.21,7.32-6.64,18.56-9.54l1.41-13.65s-14.24,4.41-18.3,7Z"/><path class="cls-1" d="M55.49,171.32c-1.94-2.31-7-7-18.09-10.42l-.76-13.7s14,5.08,17.94,7.82Z"/><path class="cls-1" d="M54.64,169.29a24.48,24.48,0,0,1,1.93,7.47,18.13,18.13,0,0,1-2.71,9.91,11.68,11.68,0,0,1-8.41,4.81c-3.43.19-4.51-3-6.92-7.22s3.91-7.81,4.21-2.4,4.51,3,4.51,3,3.91-7.81-2.71-9.61c-9.91-2.71-11,7.66-11,7.66s4.19,25.83,26,8.87c8.15-6.33,7.08-19,5-28.13Z"/><rect class="cls-1" x="73.23" y="27.14" width="13.53" height="13.53"/><rect class="cls-1" x="83" y="27.14" width="13.53" height="13.53"/><rect class="cls-1" x="59.7" y="27.14" width="13.53" height="13.53"/><rect class="cls-1" x="46.17" y="27.14" width="13.53" height="13.53"/><rect class="cls-1" x="32.64" y="27.14" width="13.53" height="13.53"/><rect class="cls-1" x="20.61" y="27.14" width="13.53" height="13.53"/><rect class="cls-1" x="13.1" y="27.14" width="13.53" height="13.53"/><rect class="cls-1" x="96.53" y="27.14" width="13.53" height="13.53"/><path class="cls-1" d="M1.82,59.73c1.34-2.66,3.61-9.08,2.41-20.49l12.14-6s.85,14.71-.11,19.35Z"/><path class="cls-1" d="M1.82,7.52C3.16,10.18,5.43,16.6,4.23,28l12.14,6s.85-14.71-.11-19.35Z"/><path class="cls-1" d="M96.15,0C97.42,2.7,99.52,9.17,98,20.55l12,6.34s1.23-14.69.39-19.35Z"/><path class="cls-1" d="M95.08,66.47c1.38-2.64,3.76-9,2.74-20.45l12.25-5.83s.6,14.73-.43,19.35Z"/></g></g></svg>