<svg xmlns="http://www.w3.org/2000/svg" viewBox="0 0 359.03 110.87"><defs><style>.cls-1{fill:#010101;}</style></defs><title>bordi_upper</title><g id="Layer_2" data-name="Layer 2"><g id="_3_-_Alfabeto" data-name="3 - Alfabeto"><rect class="cls-1" x="224.61" y="25.42" width="13.61" height="13.61"/><rect class="cls-1" x="224.61" y="15.59" width="13.61" height="13.61"/><rect class="cls-1" x="224.61" y="2.74" width="13.61" height="13.61"/><rect class="cls-1" x="224.61" y="39.04" width="13.61" height="13.61"/><rect class="cls-1" x="224.61" y="52.65" width="13.61" height="13.61"/><rect class="cls-1" x="224.61" y="66.26" width="13.61" height="13.61"/><rect class="cls-1" x="224.61" y="78.36" width="13.61" height="13.61"/><rect class="cls-1" x="224.61" y="91.97" width="13.61" height="13.61"/><rect class="cls-1" x="224.61" y="97.26" width="13.61" height="13.61"/><path class="cls-1" d="M255.14,17.53c2.24,2,6.74,7.16,9.83,18.28L278.57,37s-4.64-14.08-7.26-18.06Z"/><path class="cls-1" d="M270.65,61.94c.56,3,1,9.78-3.34,20.49l10.09,9.19s4.88-14,5.25-18.75Z"/><path class="cls-1" d="M270.63,64.27c.58-2.94,1.05-9.77-3.2-20.51l10.15-9.12s4.79,14,5.12,18.78Z"/><path class="cls-1" d="M254.67,107.05c2.3-1.91,7-6.91,10.48-17.92l13.63-.66s-5.15,13.9-7.91,17.8Z"/><path class="cls-1" d="M260.08,22.79c-2.32-1.9-8.11-5.55-19.58-6.89L237.26,2.65s14.63,2.41,19,4.38Z"/><path class="cls-1" d="M262.46,99.74a24.36,24.36,0,0,1-7.52,1.54,18,18,0,0,1-9.72-3.18,11.65,11.65,0,0,1-4.35-8.6c0-3.41,3.21-4.32,7.51-6.5s7.56,4.27,2.17,4.3-3.21,4.33-3.21,4.33,7.56,4.27,9.69-2.2c3.18-9.72-7.07-11.28-7.07-11.28S224.1,81,239.85,103.52c5.89,8.41,18.55,8,27.71,6.32Z"/><rect class="cls-1" y="13.85" width="13.85" height="13.85"/><rect class="cls-1" width="13.85" height="13.85"/><rect class="cls-1" y="27.7" width="13.85" height="13.85"/><rect class="cls-1" y="41.55" width="13.85" height="13.85"/><rect class="cls-1" y="55.39" width="13.85" height="13.85"/><rect class="cls-1" y="69.24" width="13.85" height="13.85"/><rect class="cls-1" y="83.09" width="13.85" height="13.85"/><rect class="cls-1" y="96.94" width="13.85" height="13.85"/><path class="cls-1" d="M40.78,15.92c-2.67-1.46-9.16-4-20.88-3.15L14.13.14S29.21-.24,33.93.9Z"/><path class="cls-1" d="M38.31,40.85c-2.72,1.4-9.26,3.79-21,2.67L11.3,56s15.07.72,19.81-.3Z"/><path class="cls-1" d="M34.5,9.32c2.31,2,7,7.18,10.28,18.45l13.85,1S53.69,14.49,51,10.46Z"/><path class="cls-1" d="M32.76,46.5c2.42-1.85,7.39-6.74,11.39-17.8L58,28.59s-5.81,13.92-8.76,17.77Z"/><path class="cls-1" d="M39.34,93.12c-2.56,1.66-8.83,4.68-20.59,4.72l-4.79,13s15.07-.77,19.68-2.26Z"/><path class="cls-1" d="M35,61.07c2.32,2,7,7.16,10.34,18.42l13.85.92s-5-14.24-7.72-18.25Z"/><path class="cls-1" d="M20.7,52.47c2.95.79,9.4,3.43,17.29,12.13l12.89-5.16S40.23,48.76,36,46.33Z"/><path class="cls-1" d="M34.21,98.52c2.38-1.9,7.25-6.88,11-18l13.88-.37s-5.54,14-8.42,17.92Z"/><path class="cls-1" d="M90.48,22.52c-1.74,2.45-5,8.49-5.55,20.07L71.88,46.73S73.3,31.93,75,27.44Z"/><path class="cls-1" d="M81.69,68.61c.18,3,1.45,9.76,8.29,19.1L82.43,99.14s-8.2-12.4-9.71-17Z"/><path class="cls-1" d="M81.75,69c-.74-2.92-1.59-9.73,2.06-20.73L73.14,39.68s-4,14.32-4.08,19.1Z"/><path class="cls-1" d="M87.07,26c2-2.24,7.19-6.75,18.35-9.84l1.17-13.64S92.46,7.19,88.46,9.8Z"/><path class="cls-1" d="M88.42,85.28c1.73,2.46,6.35,7.54,17.08,11.92l-.43,13.67s-13.49-6.26-17.17-9.32Z"/><path class="cls-1" d="M123.1,22.52c1.74,2.45,5,8.49,5.55,20.07l13,4.14s-1.42-14.8-3.09-19.29Z"/><path class="cls-1" d="M131.88,68.61c-.18,3-1.44,9.76-8.29,19.1l7.55,11.43s8.2-12.4,9.72-17Z"/><path class="cls-1" d="M131.83,69c.74-2.92,1.59-9.73-2.06-20.73l10.67-8.57s4,14.32,4.08,19.1Z"/><path class="cls-1" d="M126.51,26c-2-2.24-7.2-6.75-18.35-9.84L107,2.54s14.12,4.65,18.13,7.26Z"/><path class="cls-1" d="M125.16,85.28c-1.73,2.46-6.35,7.54-17.08,11.92l.43,13.67s13.49-6.26,17.17-9.32Z"/><path class="cls-1" d="M114.89,15.77a24.43,24.43,0,0,1,2.1,7.41,18.08,18.08,0,0,1-2.48,10,11.68,11.68,0,0,1-8.28,5c-3.41.26-4.57-2.89-7.06-7s3.71-7.89,4.14-2.5,4.57,2.89,4.57,2.89S111.59,23.61,105,22c-10-2.46-10.77,7.9-10.77,7.9S99,55.52,120.32,38.1c8-6.5,6.63-19.14,4.28-28.18Z"/><path class="cls-1" d="M198.17,85.15c1.54,2.6,4.29,8.91,3.89,20.51l12.69,5.21s-.19-14.9-1.49-19.51Z"/><path class="cls-1" d="M205.63,74.75c-2.83-3.88-14.42-13.24-14.42-13.24l-3.74,13.2c9.36,6.86,12.62,12.92,13.71,15.73Z"/><rect class="cls-1" x="154.38" y="73.32" width="13.68" height="13.68"/><rect class="cls-1" x="154.38" y="83.2" width="13.68" height="13.68"/><rect class="cls-1" x="154.38" y="59.63" width="13.68" height="13.68"/><rect class="cls-1" x="154.38" y="45.95" width="13.68" height="13.68"/><rect class="cls-1" x="154.38" y="32.26" width="13.68" height="13.68"/><rect class="cls-1" x="154.38" y="20.1" width="13.68" height="13.68"/><rect class="cls-1" x="154.38" y="8.7" width="13.68" height="13.68"/><rect class="cls-1" x="154.38" y="1.09" width="13.68" height="13.68"/><rect class="cls-1" x="154.38" y="96.88" width="13.68" height="13.68"/><path class="cls-1" d="M191.72,19.38c-2.48-1.71-8.59-4.88-20.2-5.27l-4.34-13S182,2.3,186.55,3.91Z"/><path class="cls-1" d="M188.64,16.34c2.21,2,6.63,7.32,9.54,18.56l13.64,1.41s-4.4-14.24-7-18.3Z"/><path class="cls-1" d="M187.71,55.49c2.3-1.94,7-7,10.41-18.09l13.7-.76s-5.07,14-7.82,17.94Z"/><path class="cls-1" d="M189.74,54.64a24.48,24.48,0,0,1-7.47,1.93,18.18,18.18,0,0,1-9.92-2.71,11.65,11.65,0,0,1-4.8-8.41c-.19-3.43,3-4.51,7.21-6.92s7.82,3.91,2.4,4.21-3,4.51-3,4.51,7.82,3.91,9.62-2.71c2.71-9.91-7.66-11-7.66-11s-25.83,4.19-8.88,26c6.34,8.15,19,7.08,28.14,5Z"/><rect class="cls-1" x="318.35" y="73.23" width="13.53" height="13.53"/><rect class="cls-1" x="318.35" y="83" width="13.53" height="13.53"/><rect class="cls-1" x="318.35" y="59.7" width="13.53" height="13.53"/><rect class="cls-1" x="318.35" y="46.17" width="13.53" height="13.53"/><rect class="cls-1" x="318.35" y="32.64" width="13.53" height="13.53"/><rect class="cls-1" x="318.35" y="20.61" width="13.53" height="13.53"/><rect class="cls-1" x="318.35" y="13.1" width="13.53" height="13.53"/><rect class="cls-1" x="318.35" y="96.53" width="13.53" height="13.53"/><path class="cls-1" d="M299.29,1.82c2.66,1.34,9.08,3.61,20.5,2.41l6,12.14s-14.71.85-19.36-.11Z"/><path class="cls-1" d="M351.51,1.82c-2.66,1.34-9.08,3.61-20.5,2.41l-6,12.14s14.71.85,19.36-.11Z"/><path class="cls-1" d="M359,96.15c-2.7,1.27-9.17,3.37-20.55,1.87l-6.34,12s14.69,1.23,19.35.39Z"/><path class="cls-1" d="M292.56,95.08c2.64,1.38,9,3.76,20.45,2.74l5.83,12.25s-14.73.6-19.35-.43Z"/></g></g></svg>