<svg xmlns="http://www.w3.org/2000/svg" viewBox="0 0 267.21 155.26"><defs><style>.cls-1{fill:#010101;}</style></defs><title>edges_lower</title><g id="Layer_2" data-name="Layer 2"><g id="_3_-_Imagem" data-name="3 - Imagem"><path class="cls-1" d="M6.18,54.87c3.11-3.88,15.55-13,15.55-13L25,55.68C15,62.34,11.3,68.46,10.05,71.32Z"/><path class="cls-1" d="M10.1,68.35C11.34,71.22,15,77.35,25,84L21.7,97.85S9.29,88.67,6.18,84.79Z"/><path class="cls-1" d="M41.45,46.57c-4.51-2.08-19.72-4.73-19.72-4.73L25,55.67c11.94,1.5,18,5.35,20.34,7.35Z"/><path class="cls-1" d="M15.09,61.48C10.81,64,0,75,0,75l13.23,5.18c8-9,14.59-11.74,17.6-12.57Z"/><path class="cls-1" d="M45.34,76.74c-2.4,2-8.41,5.83-20.35,7.29L21.7,97.86s15.22-2.61,19.73-4.68Z"/><path class="cls-1" d="M176.11,55.56c3.11-3.87,15.55-13,15.55-13l3.25,13.83C184.89,63,181.23,69.15,180,72Z"/><path class="cls-1" d="M180,69.05c1.25,2.86,4.9,9,14.9,15.67l-3.29,13.82s-12.42-9.17-15.52-13.06Z"/><path class="cls-1" d="M211.38,47.27c-4.51-2.09-19.72-4.74-19.72-4.74l3.25,13.84c11.94,1.49,17.94,5.34,20.34,7.34Z"/><path class="cls-1" d="M185,62.18c-4.28,2.53-15.09,13.55-15.09,13.55l13.23,5.17c8-9,14.59-11.74,17.6-12.57Z"/><path class="cls-1" d="M215.27,77.43c-2.4,2-8.41,5.83-20.35,7.3l-3.29,13.82s15.21-2.61,19.73-4.68Z"/><path class="cls-1" d="M224.63,70c1.56-2.71,5.86-8.39,16.54-13.92L239.43,42s-13.35,7.74-16.87,11.26Z"/><path class="cls-1" d="M245.86,78.53c-4.93-.64-19.21-6.49-19.21-6.49l10.11-10c10.9,5.09,18,5,21.13,4.6Z"/><path class="cls-1" d="M267.21,57.29c-2.8-1.4-9.52-3.77-21.48-2.49l-6.34-12.72s15.41-.91,20.28.08Z"/><path class="cls-1" d="M222.92,82.82c2.78,1.42,9.48,3.85,21.45,2.67l6.22,12.78s-15.42.78-20.28-.26Z"/><path class="cls-1" d="M258.84,67.6c-.92,3-3.85,9.48-13,17.25l4.82,13.37s11.3-10.52,13.95-14.73Z"/><rect class="cls-1" x="89.97" y="84.28" width="14.18" height="14.18"/><rect class="cls-1" x="89.97" y="28.35" width="14.18" height="14.18"/><rect class="cls-1" x="89.97" y="37.02" width="14.18" height="14.18"/><rect class="cls-1" x="89.97" y="14.18" width="14.18" height="14.18"/><rect class="cls-1" x="89.82" width="14.18" height="14.18"/><rect class="cls-1" x="89.97" y="76.4" width="14.18" height="14.18"/><rect class="cls-1" x="89.97" y="62.22" width="14.18" height="14.18"/><rect class="cls-1" x="89.97" y="48.05" width="14.18" height="14.18"/><path class="cls-1" d="M71.85,57.25c2.75-1.49,9.38-4.09,21.39-3.22l5.9-12.93s-15.44-.39-20.27.78Z"/><path class="cls-1" d="M73.59,82.78c2.79,1.43,9.48,3.88,21.45,2.73l6.2,12.79S85.82,99,81,98Z"/><path class="cls-1" d="M77.5,50.5c-2.36,2-7.12,7.34-10.52,18.89l-14.18,1s5.06-14.59,7.84-18.71Z"/><path class="cls-1" d="M78.49,88.56c-2.48-1.9-7.56-6.9-11.65-18.22l-14.2-.11s5.93,14.25,9,18.19Z"/><rect class="cls-1" x="148.46" y="107.77" width="14.18" height="14.18"/><rect class="cls-1" x="148.46" y="96.75" width="14.18" height="14.18"/><rect class="cls-1" x="148.46" y="51.85" width="14.18" height="14.18"/><rect class="cls-1" x="148.46" y="43.19" width="14.18" height="14.18"/><rect class="cls-1" x="148.46" y="66.03" width="14.18" height="14.18"/><rect class="cls-1" x="148.46" y="80.21" width="14.18" height="14.18"/><rect class="cls-1" x="148.46" y="88.87" width="14.18" height="14.18"/><path class="cls-1" d="M130.49,59.48c2.74-1.49,9.38-4.09,21.39-3.22l5.9-12.93s-15.44-.39-20.27.78Z"/><path class="cls-1" d="M132.23,85c2.78,1.43,9.48,3.88,21.45,2.73l6.2,12.79s-15.42.74-20.28-.31Z"/><path class="cls-1" d="M136.14,52.73c-2.36,2-7.12,7.35-10.52,18.89l-14.18,1S116.5,58,119.28,53.9Z"/><path class="cls-1" d="M137.92,90.79c-2.48-1.9-7.56-6.9-11.65-18.22l-14.21-.11s5.94,14.25,9,18.19Z"/><path class="cls-1" d="M149.06,118.81c-.25,3.11-1.7,10.1-9,19.67l7.62,12s8.74-12.73,10.4-17.41Z"/><path class="cls-1" d="M117.33,142.21c3,.74,10.12,1.54,21.5-2.39l9,11s-14.81,4.34-19.78,4.46Z"/></g></g></svg>