<svg xmlns="http://www.w3.org/2000/svg" viewBox="0 0 326.03 110.25"><defs><style>.cls-1{fill:#010101;}</style></defs><title>edges_upper</title><g id="Layer_2" data-name="Layer 2"><g id="_3_-_Imagem" data-name="3 - Imagem"><path class="cls-1" d="M188.89,61.24c-2.64,1.47-9,4.06-20.63,3.37l-5.55,12.57s14.93.19,19.59-1Z"/><path class="cls-1" d="M143,21.47c-1.51,2.61-4.18,9-3.64,20.59l-12.64,5.38s0-14.92,1.24-19.57Z"/><path class="cls-1" d="M138.8,67.55c0,3,.87,9.86,7.17,19.64l-8.24,11S130.25,85.26,129,80.63Z"/><path class="cls-1" d="M139.78,72.73c-1.17-2.78-3-9.42-1-20.88l-11.88-6.93S125,59.74,125.66,64.5Z"/><path class="cls-1" d="M141.23,24.17c1.94-2.31,7-7,18.12-10.44L160.1,0s-14,5.09-18,7.84Z"/><path class="cls-1" d="M180.45,23.22c-2.06-2.22-7.34-6.64-18.6-9.55L160.43,0s14.27,4.41,18.34,7Z"/><path class="cls-1" d="M143.5,83.4c1.6,2.56,6,7.89,16.5,12.83l-1.14,13.69s-13.2-7-16.73-10.24Z"/><path class="cls-1" d="M181.28,89.21c-2.27,2-8,5.85-19.48,7.59L159,110.25s14.63-2.92,18.94-5Z"/><polygon class="cls-1" points="167.72 77.56 180.84 89.26 184.03 72.48 167.72 77.56"/><path class="cls-1" d="M170.08,13.4a24.67,24.67,0,0,1,2,7.48,18.14,18.14,0,0,1-2.65,10,11.73,11.73,0,0,1-8.4,4.86c-3.43.22-4.54-3-7-7.18s3.87-7.85,4.2-2.43,4.53,3,4.53,3,3.87-7.85-2.76-9.62c-9.95-2.65-10.95,7.74-10.95,7.74s4.35,25.84,26.1,8.72c8.11-6.38,7-19.1,4.79-28.21Z"/><path class="cls-1" d="M276.43,15.47c2.71-1.33,9.23-3.57,20.79-2.23L303.45,1S288.56,0,283.84.91Z"/><path class="cls-1" d="M282.28,42.56c2.77,1.2,9.39,3.13,20.87,1.27l6.79,12s-14.83,1.69-19.59,1Z"/><path class="cls-1" d="M288.07,8.14c-2.21,2.06-6.63,7.35-9.5,18.62L264.9,28.21s4.38-14.27,6.92-18.35Z"/><path class="cls-1" d="M286.68,49.22c-2.11-2.17-6.25-7.68-8.56-19.08L264.55,28s3.65,14.48,6,18.68Z"/><path class="cls-1" d="M314.67,88c-2.15,2.11-7.64,6.28-19,8.64l-2.08,13.58s14.47-3.71,18.65-6.07Z"/><path class="cls-1" d="M271,89.46c2.3,2,8.05,5.76,19.57,7.37l3,13.42s-14.67-2.76-19-4.83Z"/><path class="cls-1" d="M300.76,51.44c2,2.29,5.79,8,7.42,19.54l13.43,2.93s-2.8-14.67-4.89-19Z"/><path class="cls-1" d="M302,97.36c1.84-2.4,5.32-8.35,6.29-19.94l13.23-3.69s-1.95,14.8-3.78,19.24Z"/><path class="cls-1" d="M303.4,12.28a24.54,24.54,0,0,1,7.49,1.93,18,18,0,0,1,7.38,7.17,11.72,11.72,0,0,1,.14,9.71c-1.49,3.1-4.82,2.5-9.67,2.57s-5-7.21-.07-4.85,4.82-2.5,4.82-2.5-5-7.21-9.74-2.28c-7.17,7.38,1.41,13.32,1.41,13.32s24.67,8.84,20.36-18.49c-1.6-10.21-13.25-15.43-22.27-18Z"/><path class="cls-1" d="M273.65,91.33a24.31,24.31,0,0,1-5.93-5,18,18,0,0,1-3.57-9.65,11.7,11.7,0,0,1,4.06-8.82c2.68-2.15,5.42-.18,9.83,1.86s1.36,8.64-2,4.4-5.43.18-5.43.18S272,83,278.39,80.59C288.05,77,282.87,68,282.87,68s-18.45-18.61-26.35,7.91c-2.95,9.9,5.31,19.63,12.35,25.82Z"/><rect class="cls-1" x="59.44" y="24.19" width="13.71" height="13.71"/><rect class="cls-1" x="59.44" y="14.29" width="13.71" height="13.71"/><rect class="cls-1" x="59.44" y="1.35" width="13.71" height="13.71"/><rect class="cls-1" x="59.44" y="37.9" width="13.71" height="13.71"/><rect class="cls-1" x="59.44" y="51.61" width="13.71" height="13.71"/><rect class="cls-1" x="59.44" y="65.32" width="13.71" height="13.71"/><rect class="cls-1" x="59.44" y="77.5" width="13.71" height="13.71"/><rect class="cls-1" x="59.44" y="91.21" width="13.71" height="13.71"/><rect class="cls-1" x="59.44" y="96.54" width="13.71" height="13.71"/><path class="cls-1" d="M90.2,16.24c2.25,2,6.78,7.22,9.9,18.42l13.69,1.16s-4.68-14.18-7.31-18.2Z"/><path class="cls-1" d="M105.81,61c.56,3,1,9.85-3.36,20.64l10.16,9.25s4.92-14.1,5.28-18.89Z"/><path class="cls-1" d="M105.79,63.32c.58-3,1.06-9.84-3.22-20.66l10.22-9.19S117.62,47.6,118,52.39Z"/><path class="cls-1" d="M89.72,106.4c2.32-1.92,7-7,10.55-18L114,87.69s-5.18,14-7.95,17.92Z"/><path class="cls-1" d="M95.17,21.54C92.83,19.63,87,16,75.44,14.61L72.19,1.26s14.72,2.43,19.1,4.41Z"/><path class="cls-1" d="M97.57,99A24.45,24.45,0,0,1,90,100.59a18.14,18.14,0,0,1-9.79-3.2,11.75,11.75,0,0,1-4.38-8.66c0-3.44,3.23-4.36,7.56-6.55s7.62,4.3,2.19,4.33-3.23,4.36-3.23,4.36,7.61,4.3,9.75-2.22C95.3,78.87,85,77.29,85,77.29S58.93,80.18,74.8,102.85c5.92,8.47,18.68,8,27.9,6.36Z"/><path class="cls-1" d="M197.74,16c2.67-1.4,9.14-3.81,20.72-2.78L224.36.77s-14.91-.61-19.6.44Z"/><path class="cls-1" d="M248.33,14.88C245.6,13.59,239,11.46,227.51,13L221.09.83S236-.41,240.69.43Z"/><path class="cls-1" d="M197.59,95c2.69,1.36,9.2,3.65,20.77,2.42l6.12,12.31s-14.9.87-19.61-.09Z"/><path class="cls-1" d="M248.19,95.27c-2.72,1.33-9.23,3.58-20.79,2.27l-6.2,12.26s14.89,1,19.61,0Z"/><rect class="cls-1" x="196.46" y="23.76" width="13.71" height="13.71"/><rect class="cls-1" x="196.46" y="13.86" width="13.71" height="13.71"/><rect class="cls-1" x="196.46" y="0.91" width="13.71" height="13.71"/><rect class="cls-1" x="196.46" y="37.47" width="13.71" height="13.71"/><rect class="cls-1" x="196.46" y="51.17" width="13.71" height="13.71"/><rect class="cls-1" x="196.46" y="64.88" width="13.71" height="13.71"/><rect class="cls-1" x="196.46" y="77.07" width="13.71" height="13.71"/><rect class="cls-1" x="196.46" y="90.77" width="13.71" height="13.71"/><rect class="cls-1" x="196.46" y="96.1" width="13.71" height="13.71"/><path class="cls-1" d="M208.84,43a24.54,24.54,0,0,0,1.92,7.49,18.16,18.16,0,0,0,7.18,7.39,11.76,11.76,0,0,0,9.71.14c3.09-1.49,2.49-4.82,2.56-9.67s-7.21-5-4.85-.07-2.5,4.82-2.5,4.82-7.21-5-2.28-9.74c7.39-7.17,13.33,1.41,13.33,1.41s8.82,24.67-18.51,20.36c-10.2-1.62-15.42-13.27-18-22.29Z"/><path class="cls-1" d="M1.28,16C4,14.56,10.42,12.15,22,13.18L27.9.77S13,.16,8.3,1.21Z"/><path class="cls-1" d="M51.87,14.88c-2.73-1.29-9.29-3.42-20.82-1.91L24.63.83S39.51-.41,44.23.43Z"/><path class="cls-1" d="M1.13,95c2.69,1.36,9.2,3.65,20.76,2.42L28,109.73s-14.91.87-19.61-.09Z"/><path class="cls-1" d="M51.72,95.27C49,96.6,42.49,98.85,30.94,97.54l-6.2,12.26s14.89,1,19.61,0Z"/><rect class="cls-1" y="23.76" width="13.71" height="13.71"/><rect class="cls-1" y="13.86" width="13.71" height="13.71"/><rect class="cls-1" y="0.91" width="13.71" height="13.71"/><rect class="cls-1" y="37.47" width="13.71" height="13.71"/><rect class="cls-1" y="51.17" width="13.71" height="13.71"/><rect class="cls-1" y="64.88" width="13.71" height="13.71"/><rect class="cls-1" y="77.07" width="13.71" height="13.71"/><rect class="cls-1" y="90.77" width="13.71" height="13.71"/><rect class="cls-1" y="96.1" width="13.71" height="13.71"/><path class="cls-1" d="M12.38,43a24.54,24.54,0,0,0,1.92,7.49,18.16,18.16,0,0,0,7.18,7.39,11.76,11.76,0,0,0,9.71.14c3.09-1.49,2.49-4.82,2.56-9.67s-7.21-5-4.85-.07-2.5,4.82-2.5,4.82-7.21-5-2.28-9.74c7.39-7.17,13.33,1.41,13.33,1.41S46.27,69.4,18.94,65.09C8.74,63.47,3.52,51.82,1,42.8Z"/></g></g></svg>