<svg xmlns="http://www.w3.org/2000/svg" viewBox="0 0 110.25 326.03"><defs><style>.cls-1{fill:#010101;}</style></defs><title>edges_upper</title><g id="Layer_2" data-name="Layer 2"><g id="_3_-_Imagem" data-name="3 - Imagem"><path class="cls-1" d="M61.24,137.14c1.47,2.64,4.06,9,3.37,20.63l12.57,5.55s.19-14.93-1-19.59Z"/><path class="cls-1" d="M21.47,183c2.61,1.51,9,4.18,20.59,3.63l5.38,12.65s-14.92,0-19.57-1.24Z"/><path class="cls-1" d="M67.55,187.23c3,0,9.86-.87,19.64-7.17l11,8.24S85.26,195.78,80.63,197Z"/><path class="cls-1" d="M72.73,186.25c-2.78,1.17-9.42,3-20.88,1l-6.93,11.87S59.74,201,64.5,200.37Z"/><path class="cls-1" d="M24.17,184.8c-2.31-1.94-7-7-10.44-18.12L0,165.93s5.09,14,7.84,18Z"/><path class="cls-1" d="M23.22,145.58c-2.22,2.06-6.64,7.34-9.55,18.6L0,165.6s4.41-14.27,7-18.34Z"/><path class="cls-1" d="M83.4,182.53c2.56-1.6,7.89-6,12.83-16.5l13.69,1.14s-7,13.2-10.24,16.73Z"/><path class="cls-1" d="M89.21,144.75c2,2.27,5.85,8,7.59,19.48L110.25,167s-2.92-14.64-5-18.95Z"/><polygon class="cls-1" points="77.56 158.31 89.26 145.19 72.48 141.99 77.56 158.31"/><path class="cls-1" d="M13.4,156a24.67,24.67,0,0,1,7.48-2,18.14,18.14,0,0,1,10,2.65,11.73,11.73,0,0,1,4.86,8.4c.22,3.43-3,4.53-7.18,7s-7.85-3.87-2.43-4.2,3-4.53,3-4.53-7.85-3.87-9.62,2.76C16.8,176,27.19,177,27.19,177s25.84-4.34,8.72-26.09c-6.38-8.11-19.1-7-28.21-4.79Z"/><path class="cls-1" d="M15.47,49.6c-1.33-2.71-3.57-9.23-2.23-20.79L1,22.58S0,37.47.91,42.19Z"/><path class="cls-1" d="M42.56,43.75c1.2-2.78,3.13-9.39,1.27-20.87l12-6.79s1.69,14.83,1,19.58Z"/><path class="cls-1" d="M8.14,38c2.06,2.21,7.35,6.62,18.62,9.5l1.45,13.67S13.94,56.75,9.86,54.21Z"/><path class="cls-1" d="M49.22,39.35c-2.17,2.1-7.68,6.25-19.08,8.56L28,61.48s14.48-3.65,18.68-6Z"/><path class="cls-1" d="M88,11.36c2.11,2.15,6.28,7.64,8.64,19l13.58,2.08S106.53,18,104.17,13.83Z"/><path class="cls-1" d="M89.46,55c2-2.3,5.76-8.05,7.37-19.57l13.42-3s-2.76,14.67-4.83,19Z"/><path class="cls-1" d="M51.44,25.27c2.29-2,8-5.79,19.54-7.42L73.91,4.42s-14.67,2.8-19,4.89Z"/><path class="cls-1" d="M97.36,24.05C95,22.21,89,18.73,77.42,17.76L73.73,4.53S88.53,6.48,93,8.3Z"/><path class="cls-1" d="M12.28,22.63a24.54,24.54,0,0,1,1.93-7.49,18,18,0,0,1,7.17-7.38,11.72,11.72,0,0,1,9.71-.14c3.1,1.49,2.5,4.82,2.57,9.67s-7.21,5-4.85.07-2.5-4.82-2.5-4.82-7.21,5-2.28,9.74c7.38,7.17,13.32-1.41,13.32-1.41S46.19-3.8,18.86.51C8.65,2.11,3.43,13.76.89,22.78Z"/><path class="cls-1" d="M91.33,52.38a24.5,24.5,0,0,1-5,5.93,18.14,18.14,0,0,1-9.65,3.57,11.74,11.74,0,0,1-8.82-4.06c-2.15-2.68-.18-5.42,1.86-9.83s8.64-1.36,4.4,2,.18,5.42.18,5.42,8.64-1.36,6.27-7.8C77,38,68,43.16,68,43.16S49.34,61.61,75.86,69.51c9.9,2.95,19.63-5.31,25.82-12.35Z"/><rect class="cls-1" x="24.19" y="252.88" width="13.71" height="13.71"/><rect class="cls-1" x="14.29" y="252.88" width="13.71" height="13.71"/><rect class="cls-1" x="1.35" y="252.88" width="13.71" height="13.71"/><rect class="cls-1" x="37.9" y="252.88" width="13.71" height="13.71"/><rect class="cls-1" x="51.61" y="252.88" width="13.71" height="13.71"/><rect class="cls-1" x="65.32" y="252.88" width="13.71" height="13.71"/><rect class="cls-1" x="77.5" y="252.88" width="13.71" height="13.71"/><rect class="cls-1" x="91.21" y="252.88" width="13.71" height="13.71"/><rect class="cls-1" x="96.54" y="252.88" width="13.71" height="13.71"/><path class="cls-1" d="M16.24,235.83c2-2.25,7.22-6.78,18.42-9.9l1.16-13.69s-14.18,4.68-18.2,7.31Z"/><path class="cls-1" d="M61,220.22c3-.56,9.85-1,20.64,3.36l9.25-10.16S76.76,208.5,72,208.14Z"/><path class="cls-1" d="M63.32,220.24c-3-.58-9.84-1.06-20.66,3.22l-9.19-10.22s14.13-4.83,18.92-5.16Z"/><path class="cls-1" d="M106.4,236.31c-1.92-2.32-7-7-18-10.55L87.69,212s14,5.19,17.92,8Z"/><path class="cls-1" d="M21.54,230.86C19.63,233.2,16,239,14.61,250.58L1.26,253.84s2.43-14.72,4.41-19.1Z"/><path class="cls-1" d="M99,228.46a24.45,24.45,0,0,1,1.55,7.58,18.14,18.14,0,0,1-3.2,9.79,11.75,11.75,0,0,1-8.66,4.38c-3.44,0-4.36-3.23-6.55-7.56s4.3-7.62,4.33-2.19,4.36,3.23,4.36,3.23,4.3-7.61-2.22-9.75c-9.78-3.21-11.36,7.11-11.36,7.11s2.89,26.05,25.56,10.18c8.47-5.92,8-18.68,6.36-27.9Z"/><path class="cls-1" d="M16,128.29c-1.4-2.67-3.81-9.14-2.78-20.72L.77,101.67s-.61,14.91.44,19.6Z"/><path class="cls-1" d="M14.88,77.7C13.59,80.43,11.46,87,13,98.52L.83,104.94S-.41,90.06.43,85.34Z"/><path class="cls-1" d="M95,128.44c1.36-2.69,3.65-9.2,2.42-20.77l12.31-6.12s.87,14.9-.09,19.61Z"/><path class="cls-1" d="M95.27,77.84c1.33,2.71,3.58,9.23,2.27,20.79l12.26,6.2s1-14.89,0-19.61Z"/><rect class="cls-1" x="23.76" y="115.86" width="13.71" height="13.71"/><rect class="cls-1" x="13.86" y="115.86" width="13.71" height="13.71"/><rect class="cls-1" x="0.91" y="115.86" width="13.71" height="13.71"/><rect class="cls-1" x="37.47" y="115.86" width="13.71" height="13.71"/><rect class="cls-1" x="51.17" y="115.86" width="13.71" height="13.71"/><rect class="cls-1" x="64.88" y="115.86" width="13.71" height="13.71"/><rect class="cls-1" x="77.07" y="115.86" width="13.71" height="13.71"/><rect class="cls-1" x="90.77" y="115.86" width="13.71" height="13.71"/><rect class="cls-1" x="96.1" y="115.86" width="13.71" height="13.71"/><path class="cls-1" d="M43,117.19a24.54,24.54,0,0,0,7.49-1.92,18.16,18.16,0,0,0,7.39-7.18A11.76,11.76,0,0,0,58,98.38c-1.49-3.09-4.82-2.5-9.67-2.56s-5,7.21-.07,4.85,4.82,2.5,4.82,2.5-5,7.21-9.74,2.28c-7.17-7.39,1.41-13.33,1.41-13.33S69.4,83.3,65.09,110.63c-1.62,10.2-13.27,15.42-22.29,18Z"/><path class="cls-1" d="M16,324.75c-1.4-2.67-3.81-9.14-2.78-20.72L.77,298.13s-.61,14.92.44,19.6Z"/><path class="cls-1" d="M14.88,274.16c-1.29,2.73-3.42,9.29-1.91,20.82L.83,301.4s-1.24-14.88-.4-19.6Z"/><path class="cls-1" d="M95,324.9c1.36-2.69,3.65-9.2,2.42-20.77L109.73,298s.87,14.91-.09,19.61Z"/><path class="cls-1" d="M95.27,274.3c1.33,2.72,3.58,9.23,2.27,20.79l12.26,6.2s1-14.89,0-19.61Z"/><rect class="cls-1" x="23.76" y="312.32" width="13.71" height="13.71"/><rect class="cls-1" x="13.86" y="312.32" width="13.71" height="13.71"/><rect class="cls-1" x="0.91" y="312.32" width="13.71" height="13.71"/><rect class="cls-1" x="37.47" y="312.32" width="13.71" height="13.71"/><rect class="cls-1" x="51.17" y="312.32" width="13.71" height="13.71"/><rect class="cls-1" x="64.88" y="312.32" width="13.71" height="13.71"/><rect class="cls-1" x="77.07" y="312.32" width="13.71" height="13.71"/><rect class="cls-1" x="90.77" y="312.32" width="13.71" height="13.71"/><rect class="cls-1" x="96.1" y="312.32" width="13.71" height="13.71"/><path class="cls-1" d="M43,313.65a24.54,24.54,0,0,0,7.49-1.92,18.16,18.16,0,0,0,7.39-7.18,11.76,11.76,0,0,0,.14-9.71c-1.49-3.09-4.82-2.49-9.67-2.56s-5,7.21-.07,4.85,4.82,2.5,4.82,2.5-5,7.21-9.74,2.28c-7.17-7.39,1.41-13.33,1.41-13.33s24.67-8.82,20.36,18.51c-1.62,10.2-13.27,15.42-22.29,18Z"/></g></g></svg>