<svg xmlns="http://www.w3.org/2000/svg" viewBox="0 0 452.22 112.69"><defs><style>.cls-1{fill:#010101;}</style></defs><title>kanten_upper</title><g id="Layer_2" data-name="Layer 2"><g id="_3_-_Alfabeto" data-name="3 - Alfabeto"><rect class="cls-1" x="136.6" y="74.26" width="13.83" height="13.83"/><rect class="cls-1" x="136.6" y="85.01" width="13.83" height="13.83"/><rect class="cls-1" x="136.6" y="60.43" width="13.83" height="13.83"/><rect class="cls-1" x="136.6" y="46.6" width="13.83" height="13.83"/><rect class="cls-1" x="136.6" y="32.77" width="13.83" height="13.83"/><rect class="cls-1" x="136.6" y="20.48" width="13.83" height="13.83"/><rect class="cls-1" x="136.6" y="8.95" width="13.83" height="13.83"/><rect class="cls-1" x="136.6" y="2.04" width="13.83" height="13.83"/><rect class="cls-1" x="136.6" y="98.84" width="13.83" height="13.83"/><rect class="cls-1" x="197.3" y="75.03" width="13.83" height="13.83"/><rect class="cls-1" x="197.3" y="85.01" width="13.83" height="13.83"/><rect class="cls-1" x="197.3" y="61.2" width="13.83" height="13.83"/><rect class="cls-1" x="197.3" y="47.37" width="13.83" height="13.83"/><rect class="cls-1" x="197.3" y="33.54" width="13.83" height="13.83"/><rect class="cls-1" x="197.3" y="21.24" width="13.83" height="13.83"/><rect class="cls-1" x="197.3" y="9.72" width="13.83" height="13.83"/><rect class="cls-1" x="197.3" y="2.04" width="13.83" height="13.83"/><rect class="cls-1" x="197.3" y="98.84" width="13.83" height="13.83"/><path class="cls-1" d="M159.07,50.91c2.57,1.64,7.93,6.08,12.84,16.73l13.82-1.07s-6.95-13.36-10.22-16.93Z"/><path class="cls-1" d="M184,95.38c2.49,1.76,7.63,6.44,12,17.31l13.86-.41s-6.32-13.67-9.42-17.39Z"/><path class="cls-1" d="M169.68,39c-1-4.74-7.81-18.17-7.81-18.17L153,31.39c5.8,10.21,6.29,17.14,6.13,20.19Z"/><path class="cls-1" d="M152.6,6.16c3.32,3.52,10.48,16.78,10.48,16.78l-13.8,1.27c-5.08-10.58-10.5-14.94-13.09-16.53Z"/><path class="cls-1" d="M194,83.32c-1.19-4.7-8.5-17.86-8.5-17.86l-8.5,11c6.17,10,6.93,16.89,6.89,19.94Z"/><rect class="cls-1" x="377.69" y="74.26" width="13.83" height="13.83"/><rect class="cls-1" x="377.69" y="85.01" width="13.83" height="13.83"/><rect class="cls-1" x="377.69" y="60.43" width="13.83" height="13.83"/><rect class="cls-1" x="377.69" y="46.6" width="13.83" height="13.83"/><rect class="cls-1" x="377.69" y="32.77" width="13.83" height="13.83"/><rect class="cls-1" x="377.69" y="20.48" width="13.83" height="13.83"/><rect class="cls-1" x="377.69" y="8.95" width="13.83" height="13.83"/><rect class="cls-1" x="377.69" y="2.04" width="13.83" height="13.83"/><rect class="cls-1" x="377.69" y="98.84" width="13.83" height="13.83"/><rect class="cls-1" x="438.39" y="75.03" width="13.83" height="13.83"/><rect class="cls-1" x="438.39" y="85.01" width="13.83" height="13.83"/><rect class="cls-1" x="438.39" y="61.2" width="13.83" height="13.83"/><rect class="cls-1" x="438.39" y="47.37" width="13.83" height="13.83"/><rect class="cls-1" x="438.39" y="33.54" width="13.83" height="13.83"/><rect class="cls-1" x="438.39" y="21.24" width="13.83" height="13.83"/><rect class="cls-1" x="438.39" y="9.72" width="13.83" height="13.83"/><rect class="cls-1" x="438.39" y="2.04" width="13.83" height="13.83"/><rect class="cls-1" x="438.39" y="98.84" width="13.83" height="13.83"/><path class="cls-1" d="M400.17,50.91c2.56,1.64,7.92,6.08,12.83,16.73l13.83-1.07s-7-13.36-10.23-16.93Z"/><path class="cls-1" d="M425.06,95.38c2.49,1.76,7.63,6.44,12.05,17.31l13.86-.41s-6.33-13.67-9.42-17.39Z"/><path class="cls-1" d="M410.78,39c-1-4.74-7.82-18.17-7.82-18.17l-8.91,10.61c5.8,10.21,6.29,17.14,6.13,20.19Z"/><path class="cls-1" d="M393.69,6.16c3.33,3.52,10.49,16.78,10.49,16.78l-13.81,1.27c-5.08-10.58-10.5-14.94-13.09-16.53Z"/><path class="cls-1" d="M435.07,83.32c-1.18-4.7-8.5-17.86-8.5-17.86l-8.5,11c6.17,10,6.94,16.89,6.89,19.94Z"/><rect class="cls-1" x="0.02" y="26.73" width="13.77" height="13.77"/><rect class="cls-1" x="0.02" y="16.02" width="13.77" height="13.77"/><rect class="cls-1" x="0.02" y="40.5" width="13.77" height="13.77"/><rect class="cls-1" x="0.02" y="54.26" width="13.77" height="13.77"/><rect class="cls-1" x="0.02" y="68.03" width="13.77" height="13.77"/><rect class="cls-1" x="0.02" y="80.27" width="13.77" height="13.77"/><rect class="cls-1" x="0.02" y="94.03" width="13.77" height="13.77"/><rect class="cls-1" x="0.02" y="98.62" width="13.77" height="13.77"/><rect class="cls-1" x="0.02" y="2.25" width="13.77" height="13.77"/><path class="cls-1" d="M42.55,86.82c1.55,2.61,4.31,9,3.91,20.63l12.77,5.24s-.19-15-1.5-19.63Z"/><path class="cls-1" d="M50.05,77.88C47.2,74,35.54,64.56,35.54,64.56L31.78,77.84c9.42,6.9,12.7,13,13.8,15.83Z"/><path class="cls-1" d="M21.17,55.07c4.46,1.85,16.36,11,16.36,11l-12,6.79c-8.92-7.54-15.62-9.29-18.63-9.69Z"/><path class="cls-1" d="M43.93,37.87c-2.84,3.9-14.51,13.32-14.51,13.32L25.66,37.91c9.42-6.9,12.7-13,13.8-15.83Z"/><path class="cls-1" d="M14.29,61.45c4.46-1.84,16.36-11,16.36-11l-12-6.78C9.71,51.24,3,53,0,53.39Z"/><path class="cls-1" d="M37.25,29a24.53,24.53,0,0,0,2.48-7.36,18.18,18.18,0,0,0-2-10.15,11.76,11.76,0,0,0-8.09-5.44c-3.41-.45-4.74,2.68-7.47,6.72s3.34,8.13,4,2.72S31,12.82,31,12.82s3.35,8.13-3.42,9.44c-10.15,2-10.44-8.5-10.44-8.5s6.12-25.6,26.74-7c7.7,7,5.68,19.62,2.87,28.59Z"/><path class="cls-1" d="M72.47,49.19c2.74,1.34,9.33,3.6,21,2.25l6.3,12.37s-15,1-19.81.09Z"/><rect class="cls-1" x="68.86" y="48.07" width="13.85" height="13.85"/><rect class="cls-1" x="68.86" y="61.92" width="13.85" height="13.85"/><rect class="cls-1" x="68.86" y="75.77" width="13.85" height="13.85"/><rect class="cls-1" x="68.86" y="89.61" width="13.85" height="13.85"/><rect class="cls-1" x="68.86" y="98.85" width="13.85" height="13.85"/><path class="cls-1" d="M83.37,20c-1.21,2.8-3.17,9.48-1.28,21.08L70,47.89s-1.72-15-1-19.79Z"/><path class="cls-1" d="M76.63,24.39c2.2-2.13,7.76-6.31,19.28-8.64L98.07,2s-14.63,3.68-18.87,6Z"/><path class="cls-1" d="M122.94,49.19c-2.74,1.34-9.33,3.6-21,2.25l-6.3,12.37s15,1,19.81.09Z"/><rect class="cls-1" x="112.71" y="48.07" width="13.85" height="13.85"/><rect class="cls-1" x="112.71" y="61.92" width="13.85" height="13.85"/><rect class="cls-1" x="112.71" y="75.76" width="13.85" height="13.85"/><rect class="cls-1" x="112.71" y="89.61" width="13.85" height="13.85"/><rect class="cls-1" x="112.71" y="98.85" width="13.85" height="13.85"/><path class="cls-1" d="M112,20c1.22,2.8,3.17,9.48,1.29,21.08l12.07,6.86s1.71-15,1-19.79Z"/><path class="cls-1" d="M118.78,24.39c-2.19-2.13-7.76-6.31-19.27-8.64L97.35,2s14.62,3.68,18.86,6Z"/><rect class="cls-1" x="256.6" y="27.62" width="13.92" height="13.92"/><rect class="cls-1" x="256.6" y="16.79" width="13.92" height="13.92"/><rect class="cls-1" x="256.6" y="41.54" width="13.92" height="13.92"/><rect class="cls-1" x="256.6" y="55.46" width="13.92" height="13.92"/><rect class="cls-1" x="256.6" y="69.39" width="13.92" height="13.92"/><rect class="cls-1" x="256.6" y="83.31" width="13.92" height="13.92"/><rect class="cls-1" x="256.6" y="97.23" width="13.92" height="13.92"/><rect class="cls-1" x="256.6" y="98.77" width="13.92" height="13.92"/><rect class="cls-1" x="256.6" y="3.65" width="13.92" height="13.92"/><path class="cls-1" d="M306.18,16.75c-2.8-1.25-9.51-3.28-21.19-1.49l-6.78-12.2s15.08-1.58,19.9-.81Z"/><path class="cls-1" d="M256.32,18.35c2.74-1.38,9.34-3.71,21.09-2.48l6.2-12.49s-15.13-.88-19.91.11Z"/><path class="cls-1" d="M220.74,16.75c2.8-1.25,9.51-3.28,21.18-1.49l6.79-12.2s-15.08-1.58-19.9-.81Z"/><path class="cls-1" d="M270.6,18.35c-2.74-1.38-9.34-3.71-21.09-2.48l-6.2-12.49s15.13-.88,19.91.11Z"/></g><g id="_3_-_Imagem" data-name="3 - Imagem"><path class="cls-1" d="M317.07,18.4c2.68-1.4,9.14-3.8,20.72-2.78l5.91-12.4s-14.92-.61-19.61.43Z"/><path class="cls-1" d="M367.66,17.32c-2.73-1.29-9.29-3.42-20.82-1.9L340.42,3.27S355.3,2,360,2.88Z"/><path class="cls-1" d="M316.92,97.45c2.7,1.35,9.2,3.64,20.77,2.42l6.12,12.3s-14.9.88-19.61-.09Z"/><path class="cls-1" d="M367.52,97.71c-2.71,1.33-9.23,3.58-20.78,2.27l-6.21,12.26s14.89,1,19.61.06Z"/><rect class="cls-1" x="315.79" y="26.2" width="13.71" height="13.71"/><rect class="cls-1" x="315.79" y="16.3" width="13.71" height="13.71"/><rect class="cls-1" x="315.79" y="3.35" width="13.71" height="13.71"/><rect class="cls-1" x="315.79" y="39.91" width="13.71" height="13.71"/><rect class="cls-1" x="315.79" y="53.62" width="13.71" height="13.71"/><rect class="cls-1" x="315.79" y="67.33" width="13.71" height="13.71"/><rect class="cls-1" x="315.79" y="79.51" width="13.71" height="13.71"/><rect class="cls-1" x="315.79" y="93.22" width="13.71" height="13.71"/><rect class="cls-1" x="315.79" y="98.55" width="13.71" height="13.71"/><path class="cls-1" d="M328.17,45.41a24.12,24.12,0,0,0,1.93,7.48,18.1,18.1,0,0,0,7.17,7.39,11.74,11.74,0,0,0,9.71.15c3.09-1.5,2.5-4.82,2.57-9.68s-7.22-5-4.86-.06-2.49,4.82-2.49,4.82-7.22-5-2.29-9.74c7.39-7.18,13.33,1.4,13.33,1.4s8.83,24.68-18.51,20.36c-10.2-1.61-15.42-13.27-18-22.28Z"/></g></g></svg>