<svg xmlns="http://www.w3.org/2000/svg" viewBox="0 0 314.84 100.86"><defs><style>.cls-1{fill:#010101;}</style></defs><title>kanten_lower</title><g id="Layer_2" data-name="Layer 2"><g id="_3_-_Imagem" data-name="3 - Imagem"><rect class="cls-1" x="117.03" y="74.03" width="13.42" height="13.42"/><rect class="cls-1" x="117.03" y="87.45" width="13.42" height="13.42"/><rect class="cls-1" x="117.03" y="47.94" width="13.42" height="13.42"/><rect class="cls-1" x="117.03" y="61.36" width="13.42" height="13.42"/><rect class="cls-1" x="149.08" y="74.03" width="13.42" height="13.42"/><rect class="cls-1" x="149.08" y="87.45" width="13.42" height="13.42"/><rect class="cls-1" x="149.08" y="47.94" width="13.42" height="13.42"/><rect class="cls-1" x="149.08" y="61.36" width="13.42" height="13.42"/><polygon class="cls-1" points="124.44 48.2 134.45 62.2 141.11 46.86 124.44 48.2"/><polygon class="cls-1" points="141.48 46.9 140.72 64.09 155.43 56.13 141.48 46.9"/><rect class="cls-1" x="269.37" y="74.02" width="13.42" height="13.42"/><rect class="cls-1" x="269.37" y="87.44" width="13.42" height="13.42"/><rect class="cls-1" x="269.37" y="47.93" width="13.42" height="13.42"/><rect class="cls-1" x="269.37" y="61.35" width="13.42" height="13.42"/><rect class="cls-1" x="301.42" y="74.02" width="13.42" height="13.42"/><rect class="cls-1" x="301.42" y="87.44" width="13.42" height="13.42"/><rect class="cls-1" x="301.42" y="47.93" width="13.42" height="13.42"/><rect class="cls-1" x="301.42" y="61.35" width="13.42" height="13.42"/><polygon class="cls-1" points="276.78 48.19 286.79 62.19 293.44 46.85 276.78 48.19"/><polygon class="cls-1" points="293.82 46.89 293.06 64.08 307.76 56.12 293.82 46.89"/><rect class="cls-1" y="86.44" width="14.42" height="14.42"/><rect class="cls-1" y="31.15" width="14.42" height="14.42"/><rect class="cls-1" y="38.36" width="14.42" height="14.42"/><rect class="cls-1" y="16.72" width="14.42" height="14.42"/><rect class="cls-1" x="0.14" y="12.41" width="14.42" height="14.42"/><rect class="cls-1" x="0.14" y="0.39" width="14.42" height="14.42"/><rect class="cls-1" y="78.43" width="14.42" height="14.42"/><rect class="cls-1" y="64" width="14.42" height="14.42"/><rect class="cls-1" y="49.58" width="14.42" height="14.42"/><path class="cls-1" d="M24.18,68.46C21,64.51,14.72,50.12,14.72,50.12L29.17,50C33.56,61.4,38.81,66.4,41.38,68.28Z"/><path class="cls-1" d="M26.13,29.49c-3.63,3.52-11.7,17-11.7,17l14.33,2c5.78-10.79,11.63-15.08,14.4-16.63Z"/><path class="cls-1" d="M31.1,19.63C31.7,14.6,37.49,0,37.49,0L47.76,10.18c-5,11.14-4.9,18.4-4.43,21.55Z"/><path class="cls-1" d="M30.54,81.27c.91,5,7.62,19.18,7.62,19.18l9.6-10.81C42,78.83,41.7,71.58,42,68.42Z"/><rect class="cls-1" x="189.23" y="16.37" width="14" height="14"/><rect class="cls-1" x="189.36" y="2.86" width="14" height="14"/><path class="cls-1" d="M228.63,27.35c-2.81,1.28-9.52,3.39-21.29,1.71L200.65,41.4s15.18,1.43,20,.62Z"/><path class="cls-1" d="M164.86,53.82c2.8-1.28,9.53-3.38,21.29-1.68l6.71-12.32s-15.18-1.46-20-.65Z"/><rect class="cls-1" x="189.36" y="74.42" width="14" height="14"/><rect class="cls-1" x="189.36" y="67.42" width="14" height="14"/><rect class="cls-1" x="189.36" y="86.86" width="14" height="14"/><rect class="cls-1" x="189.36" y="39.41" width="14" height="14"/><rect class="cls-1" x="189.36" y="30.08" width="14" height="14"/><rect class="cls-1" x="189.36" y="53.42" width="14" height="14"/><rect class="cls-1" x="91.06" y="71.19" width="14.61" height="14.61"/><rect class="cls-1" x="91.06" y="63.08" width="14.61" height="14.61"/><rect class="cls-1" x="91.06" y="48.47" width="14.61" height="14.61"/><rect class="cls-1" x="91.06" y="85.8" width="14.61" height="14.61"/><rect class="cls-1" x="91.06" y="77.69" width="14.61" height="14.61"/><rect class="cls-1" x="91.06" y="63.08" width="14.61" height="14.61"/><polygon class="cls-1" points="66.56 63.31 50.12 72.31 65.83 81.51 66.56 63.31"/><path class="cls-1" d="M55.73,56.56c3.21-4,16-13.42,16-13.42L75.1,57.4C64.78,64.25,61,70.56,59.71,73.52Z"/><path class="cls-1" d="M59.76,70.46c1.29,3,5,9.27,15.35,16.15l-3.39,14.25s-12.79-9.46-16-13.46Z"/><path class="cls-1" d="M92.08,48c-4.65-2.15-20.33-4.88-20.33-4.88L75.1,57.39c12.31,1.54,18.5,5.51,21,7.57Z"/><path class="cls-1" d="M96.09,79.1c-2.48,2.06-8.67,6-21,7.52l-3.39,14.24S87.4,98.18,92.05,96Z"/><polygon class="cls-1" points="95.94 100.57 114.68 100.08 104.89 84.72 95.94 100.57"/><path class="cls-1" d="M219.66,57.87c3.11-3.87,15.54-13,15.54-13l3.26,13.84c-10,6.65-13.69,12.77-14.94,15.64Z"/><path class="cls-1" d="M223.57,71.36c1.24,2.87,4.89,9,14.89,15.67l-3.29,13.83s-12.41-9.18-15.51-13.06Z"/><path class="cls-1" d="M254.93,49.58c-4.52-2.09-19.73-4.73-19.73-4.73l3.26,13.83C250.4,60.17,256.4,64,258.79,66Z"/><path class="cls-1" d="M228.56,64.49C224.29,67,213.47,78,213.47,78l13.23,5.17c8-9,14.59-11.73,17.6-12.57Z"/><path class="cls-1" d="M258.82,79.75c-2.41,2-8.42,5.83-20.36,7.29l-3.29,13.82s15.22-2.6,19.73-4.67Z"/></g></g></svg>