<svg xmlns="http://www.w3.org/2000/svg" viewBox="0 0 100.86 314.84"><defs><style>.cls-1{fill:#010101;}</style></defs><title>kanten_lower</title><g id="Layer_2" data-name="Layer 2"><g id="_3_-_Imagem" data-name="3 - Imagem"><rect class="cls-1" x="74.03" y="184.39" width="13.42" height="13.42"/><rect class="cls-1" x="87.45" y="184.39" width="13.42" height="13.42"/><rect class="cls-1" x="47.94" y="184.39" width="13.42" height="13.42"/><rect class="cls-1" x="61.36" y="184.39" width="13.42" height="13.42"/><rect class="cls-1" x="74.03" y="152.34" width="13.42" height="13.42"/><rect class="cls-1" x="87.45" y="152.34" width="13.42" height="13.42"/><rect class="cls-1" x="47.94" y="152.34" width="13.42" height="13.42"/><rect class="cls-1" x="61.36" y="152.34" width="13.42" height="13.42"/><polygon class="cls-1" points="48.2 190.4 62.2 180.39 46.86 173.73 48.2 190.4"/><polygon class="cls-1" points="46.9 173.36 64.09 174.12 56.13 159.41 46.9 173.36"/><rect class="cls-1" x="74.02" y="32.05" width="13.42" height="13.42"/><rect class="cls-1" x="87.44" y="32.05" width="13.42" height="13.42"/><rect class="cls-1" x="47.93" y="32.05" width="13.42" height="13.42"/><rect class="cls-1" x="61.35" y="32.05" width="13.42" height="13.42"/><rect class="cls-1" x="74.02" width="13.42" height="13.42"/><rect class="cls-1" x="87.44" width="13.42" height="13.42"/><rect class="cls-1" x="47.93" width="13.42" height="13.42"/><rect class="cls-1" x="61.35" width="13.42" height="13.42"/><polygon class="cls-1" points="48.19 38.06 62.19 28.05 46.85 21.39 48.19 38.06"/><polygon class="cls-1" points="46.89 21.02 64.08 21.78 56.12 7.07 46.89 21.02"/><rect class="cls-1" x="86.44" y="300.41" width="14.42" height="14.42"/><rect class="cls-1" x="31.15" y="300.41" width="14.42" height="14.42"/><rect class="cls-1" x="38.36" y="300.41" width="14.42" height="14.42"/><rect class="cls-1" x="16.72" y="300.41" width="14.42" height="14.42"/><rect class="cls-1" x="12.41" y="300.28" width="14.42" height="14.42"/><rect class="cls-1" x="0.39" y="300.28" width="14.42" height="14.42"/><rect class="cls-1" x="78.43" y="300.41" width="14.42" height="14.42"/><rect class="cls-1" x="64" y="300.41" width="14.42" height="14.42"/><rect class="cls-1" x="49.58" y="300.41" width="14.42" height="14.42"/><path class="cls-1" d="M68.46,290.66c-3.95,3.15-18.34,9.46-18.34,9.46L50,285.67C61.4,281.28,66.4,276,68.28,273.46Z"/><path class="cls-1" d="M29.49,288.71c3.52,3.63,17,11.7,17,11.7l2-14.33c-10.79-5.78-15.08-11.63-16.63-14.41Z"/><path class="cls-1" d="M19.63,283.73c-5-.59-19.63-6.38-19.63-6.38l10.18-10.28c11.14,5.05,18.4,4.91,21.55,4.44Z"/><path class="cls-1" d="M81.27,284.29c5-.9,19.18-7.61,19.18-7.61l-10.81-9.6c-10.81,5.75-18.06,6.06-21.22,5.8Z"/><rect class="cls-1" x="16.37" y="111.61" width="14" height="14"/><rect class="cls-1" x="2.86" y="111.48" width="14" height="14"/><path class="cls-1" d="M27.35,86.21c1.28,2.8,3.39,9.52,1.71,21.29l12.34,6.69s1.43-15.18.62-20Z"/><path class="cls-1" d="M53.82,150c-1.28-2.81-3.38-9.53-1.68-21.29L39.82,122s-1.46,15.17-.65,20Z"/><rect class="cls-1" x="74.42" y="111.48" width="14" height="14"/><rect class="cls-1" x="67.42" y="111.48" width="14" height="14"/><rect class="cls-1" x="86.86" y="111.48" width="14" height="14"/><rect class="cls-1" x="39.41" y="111.48" width="14" height="14"/><rect class="cls-1" x="30.08" y="111.48" width="14" height="14"/><rect class="cls-1" x="53.42" y="111.48" width="14" height="14"/><rect class="cls-1" x="71.19" y="209.17" width="14.61" height="14.61"/><rect class="cls-1" x="63.08" y="209.17" width="14.61" height="14.61"/><rect class="cls-1" x="48.47" y="209.17" width="14.61" height="14.61"/><rect class="cls-1" x="85.8" y="209.17" width="14.61" height="14.61"/><rect class="cls-1" x="77.69" y="209.17" width="14.61" height="14.61"/><rect class="cls-1" x="63.08" y="209.17" width="14.61" height="14.61"/><polygon class="cls-1" points="63.31 248.28 72.31 264.72 81.51 249.01 63.31 248.28"/><path class="cls-1" d="M56.56,259.11c-4-3.21-13.42-16-13.42-16l14.26-3.36c6.85,10.33,13.16,14.1,16.12,15.39Z"/><path class="cls-1" d="M70.46,255.08c3-1.29,9.27-5.05,16.15-15.35l14.25,3.39s-9.46,12.79-13.46,16Z"/><path class="cls-1" d="M48,222.76c-2.15,4.65-4.88,20.33-4.88,20.33l14.26-3.36c1.54-12.3,5.51-18.49,7.57-21Z"/><path class="cls-1" d="M79.1,218.75c2.06,2.48,6,8.67,7.52,21l14.24,3.39S98.18,227.44,96,222.78Z"/><polygon class="cls-1" points="100.57 218.9 100.08 200.16 84.72 209.94 100.57 218.9"/><path class="cls-1" d="M57.87,95.18c-3.87-3.11-13-15.54-13-15.54l13.84-3.26c6.65,10,12.77,13.68,15.64,14.94Z"/><path class="cls-1" d="M71.36,91.27c2.87-1.25,9-4.89,15.67-14.9l13.83,3.3S91.68,92.08,87.8,95.18Z"/><path class="cls-1" d="M49.58,59.91c-2.09,4.52-4.73,19.73-4.73,19.73l13.83-3.26C60.17,64.44,64,58.44,66,56.05Z"/><path class="cls-1" d="M64.49,86.28C67,90.55,78,101.37,78,101.37l5.17-13.24c-9-8-11.73-14.58-12.57-17.59Z"/><path class="cls-1" d="M79.75,56c2,2.4,5.83,8.41,7.29,20.35l13.82,3.3s-2.6-15.22-4.67-19.73Z"/></g></g></svg>