<svg xmlns="http://www.w3.org/2000/svg" xmlns:xlink="http://www.w3.org/1999/xlink" viewBox="0 0 1077.41 568.05"><defs><style>.cls-1{fill:none;}.cls-2{opacity:0.5;}.cls-3{clip-path:url(#clip-path);}.cls-4{fill:#fdc73d;}</style><clipPath id="clip-path" transform="translate(-13 -17)"><rect class="cls-1" width="1091.41" height="602.05"/></clipPath></defs><title>questionmark</title><g id="Layer_2" data-name="Layer 2"><g id="Layer_1-2" data-name="Layer 1"><g class="cls-2"><g class="cls-3"><polygon class="cls-4" points="1077.41 459.36 913.3 410.55 1036.01 298.23 1077.41 459.36"/><rect class="cls-4" x="731.03" y="324.34" width="133.54" height="133.54"/><rect class="cls-4" x="612.33" y="324.34" width="133.53" height="133.54"/><rect class="cls-4" x="552.98" y="324.34" width="133.54" height="133.54"/><path class="cls-4" d="M672.37,400.09c-11.72-27-30.57-91.47-12.39-203.26l-116.4-66.18S527,275.17,533.94,321.46Z" transform="translate(-13 -17)"/><path class="cls-4" d="M229.48,143.93c-20.55,21-61.21,74.49-84.13,185.47L13,349.65S49.13,208.77,72.13,168Z" transform="translate(-13 -17)"/><path class="cls-4" d="M585.79,220.12c-22.25-19.21-78.19-56.38-190.36-72.33L366.94,17S509.83,44.22,552,64.63Z" transform="translate(-13 -17)"/><path class="cls-4" d="M138.52,208.18C161.89,190.3,219.83,156.4,332.74,147L368.72,18S224.5,37,181.25,54.84Z" transform="translate(-13 -17)"/><path class="cls-4" d="M123.69,351.28c.29,25.74,3,52.6,10.83,74.56,17.65,49.85,61.72,79.08,61.72,79.08s44,29.23,93.84,11.57c31.54-11.2,29.23-44,35-90.95s-64.61-55.64-47-5.78-29.23,44.06-29.23,44.06S184.3,408.18,237,367.08c79.09-61.72,127.6,27.67,127.6,27.67S424.22,643,164,572.43C66.94,546.1,28.65,427.77,13.59,337.71Z" transform="translate(-13 -17)"/></g></g></g></g></svg>