<svg xmlns="http://www.w3.org/2000/svg" viewBox="0 0 102.7 348.04"><defs><style>.cls-1{fill:#010101;}</style></defs><title>bordas_lower</title><g id="Layer_2" data-name="Layer 2"><g id="_3_-_Alfabeto" data-name="3 - Alfabeto"><rect class="cls-1" x="85.86" y="120.64" width="14.36" height="14.36"/><rect class="cls-1" x="29.22" y="120.64" width="14.36" height="14.36"/><rect class="cls-1" x="37.99" y="120.64" width="14.36" height="14.36"/><rect class="cls-1" x="14.86" y="120.64" width="14.36" height="14.36"/><rect class="cls-1" x="0.84" y="120.64" width="14.36" height="14.36"/><rect class="cls-1" x="77.89" y="120.64" width="14.36" height="14.36"/><rect class="cls-1" x="63.52" y="120.64" width="14.36" height="14.36"/><rect class="cls-1" x="49.16" y="120.64" width="14.36" height="14.36"/><path class="cls-1" d="M58.49,153.35c-1.52-2.78-4.15-9.51-3.26-21.66l-13.1-6s-.39,15.64.79,20.53Z"/><path class="cls-1" d="M84.35,151.58c1.44-2.81,3.92-9.59,2.76-21.72l13-6.28s.75,15.62-.31,20.54Z"/><path class="cls-1" d="M51.65,147.63c2.07,2.39,7.44,7.21,19.13,10.66l1,14.36s-14.77-5.13-19-7.94Z"/><path class="cls-1" d="M90.2,146.62c-1.92,2.51-7,7.66-18.45,11.8l-.12,14.39s14.44-6,18.43-9.08Z"/><rect class="cls-1" x="69.32" y="59.73" width="14.61" height="14.61"/><rect class="cls-1" x="61.2" y="59.73" width="14.61" height="14.61"/><rect class="cls-1" x="46.59" y="59.73" width="14.61" height="14.61"/><rect class="cls-1" x="83.93" y="59.73" width="14.61" height="14.61"/><rect class="cls-1" x="75.81" y="59.73" width="14.61" height="14.61"/><rect class="cls-1" x="61.2" y="59.73" width="14.61" height="14.61"/><polygon class="cls-1" points="61.44 98.84 70.43 115.28 79.63 99.57 61.44 98.84"/><path class="cls-1" d="M54.68,109.67c-4-3.21-13.42-16-13.42-16l14.26-3.35c6.86,10.33,13.16,14.1,16.12,15.39Z"/><path class="cls-1" d="M68.58,105.63c3-1.28,9.27-5,16.15-15.35L99,93.67s-9.46,12.8-13.46,16Z"/><path class="cls-1" d="M46.13,73.32C44,78,41.26,93.64,41.26,93.64l14.25-3.35C57.05,78,61,71.8,63.08,69.33Z"/><path class="cls-1" d="M77.22,69.31c2.06,2.47,6,8.67,7.52,21L99,93.67S96.3,78,94.16,73.34Z"/><polygon class="cls-1" points="98.69 69.45 98.2 50.72 82.84 60.5 98.69 69.45"/><rect class="cls-1" x="86.85" y="333.42" width="14.61" height="14.61"/><rect class="cls-1" x="29.22" y="333.42" width="14.61" height="14.61"/><rect class="cls-1" x="38.15" y="333.42" width="14.61" height="14.61"/><rect class="cls-1" x="14.61" y="333.42" width="14.61" height="14.61"/><rect class="cls-1" y="333.42" width="14.61" height="14.61"/><rect class="cls-1" x="78.74" y="333.42" width="14.61" height="14.61"/><rect class="cls-1" x="64.13" y="333.42" width="14.61" height="14.61"/><rect class="cls-1" x="49.52" y="333.42" width="14.61" height="14.61"/><path class="cls-1" d="M59,314.75c-1.55,2.82-4.23,9.67-3.32,22l-13.33,6.08S42,327,43.16,322Z"/><path class="cls-1" d="M85.31,316.55c1.47,2.87,4,9.77,2.81,22.1L101.3,345s.77-15.89-.31-20.9Z"/><path class="cls-1" d="M52,320.57c2.11-2.44,7.57-7.35,19.47-10.85l1-14.61s-15,5.21-19.28,8.08Z"/><path class="cls-1" d="M91.27,321.59c-2-2.55-7.11-7.79-18.77-12l-.13-14.65s14.7,6.13,18.76,9.24Z"/><path class="cls-1" d="M58.2,254.4c1.25-2.91,4.93-9.16,15.07-16l-3.4-14s-12.58,9.37-15.72,13.33Z"/><path class="cls-1" d="M93.3,259.83c-1.32,2.88-5.15,9-15.44,15.63l3.06,14.11s12.8-9.07,16-13Z"/><path class="cls-1" d="M58.48,245.46c-.61,3.11-1.09,10.35,3.44,21.7L51.2,276.85S46.09,262,45.73,257Z"/><path class="cls-1" d="M83.7,273.87c-3.17.22-10.39-.19-21.11-6.07l-10.93,9.44s14.1,6.89,19,7.86Z"/><path class="cls-1" d="M67.1,239.71c3.16.16,10.3,1.41,20.25,8.51l12-8.1s-13.19-8.49-18-10Z"/><path class="cls-1" d="M88.71,271c1-3,2.27-10.15-.92-22l11.76-8.38S102.92,256,102.69,261Z"/><path class="cls-1" d="M59.4,209.3c-.73-3.09-1.5-10.31,2.56-21.87l-11.13-9.26s-4.51,15.07-4.66,20.13Z"/><rect class="cls-1" x="69.94" y="204.57" width="16.84" height="14.44"/><rect class="cls-1" x="57.11" y="204.57" width="14.44" height="14.44"/><rect class="cls-1" x="86.79" y="204.57" width="14.44" height="14.44"/><rect class="cls-1" x="42.67" y="204.57" width="14.44" height="14.44"/><path class="cls-1" d="M73.14,43.26c-2.75-1.58-8.53-5.95-14.15-16.8L44.66,28.22s7.87,13.57,11.45,17.14Z"/><path class="cls-1" d="M81.81,21.69c-.65,5-6.6,19.51-6.6,19.51L65.08,30.93c5.17-11.08,5.09-18.32,4.67-21.46Z"/><path class="cls-1" d="M60.23,0C58.8,2.84,56.4,9.67,57.7,21.82L44.77,28.26s-.92-15.66.08-20.6Z"/><path class="cls-1" d="M86.16,45c1.45-2.83,3.91-9.64,2.72-21.8l13-6.32s.79,15.67-.26,20.6Z"/><path class="cls-1" d="M70.7,8.5c3,.93,9.64,3.91,17.53,13.24l13.58-4.9S91.12,5.36,86.85,2.67Z"/></g></g></svg>