<svg xmlns="http://www.w3.org/2000/svg" viewBox="0 0 110.87 429.95"><defs><style>.cls-1{fill:#010101;}</style></defs><title>bordas_upper</title><g id="Layer_2" data-name="Layer 2"><g id="_3_-_Alfabeto" data-name="3 - Alfabeto"><rect class="cls-1" x="25.42" y="191.73" width="13.61" height="13.61"/><rect class="cls-1" x="15.59" y="191.73" width="13.61" height="13.61"/><rect class="cls-1" x="2.74" y="191.73" width="13.61" height="13.61"/><rect class="cls-1" x="39.04" y="191.73" width="13.61" height="13.61"/><rect class="cls-1" x="52.65" y="191.73" width="13.61" height="13.61"/><rect class="cls-1" x="66.26" y="191.73" width="13.61" height="13.61"/><rect class="cls-1" x="78.36" y="191.73" width="13.61" height="13.61"/><rect class="cls-1" x="91.97" y="191.73" width="13.61" height="13.61"/><rect class="cls-1" x="97.26" y="191.73" width="13.61" height="13.61"/><path class="cls-1" d="M17.53,174.8c2-2.23,7.16-6.73,18.28-9.83L37,151.38S22.88,156,18.9,158.64Z"/><path class="cls-1" d="M61.94,159.3c3-.56,9.78-1,20.49,3.34l9.19-10.09s-14-4.89-18.75-5.25Z"/><path class="cls-1" d="M64.27,159.32c-2.94-.58-9.77-1-20.51,3.2l-9.12-10.15s14-4.8,18.78-5.12Z"/><path class="cls-1" d="M107.05,175.28c-1.91-2.31-6.91-7-17.92-10.48l-.66-13.63s13.9,5.15,17.8,7.91Z"/><path class="cls-1" d="M22.79,169.87c-1.9,2.32-5.55,8.11-6.89,19.58L2.65,192.69s2.41-14.63,4.38-19Z"/><path class="cls-1" d="M99.74,167.48a24.36,24.36,0,0,1,1.54,7.53,18,18,0,0,1-3.18,9.71,11.64,11.64,0,0,1-8.6,4.36c-3.41,0-4.32-3.21-6.5-7.51s4.27-7.56,4.3-2.18,4.33,3.22,4.33,3.22,4.27-7.56-2.2-9.69C79.71,169.74,78.15,180,78.15,180s2.86,25.86,25.37,10.11c8.41-5.88,8-18.54,6.32-27.7Z"/><path class="cls-1" d="M47.37,131.28c1.34-2.73,3.6-9.33,2.25-21L62,104s1,15,.09,19.81Z"/><rect class="cls-1" x="46.25" y="121.05" width="13.85" height="13.85"/><rect class="cls-1" x="60.09" y="121.05" width="13.85" height="13.85"/><rect class="cls-1" x="73.94" y="121.05" width="13.85" height="13.85"/><rect class="cls-1" x="87.79" y="121.05" width="13.85" height="13.85"/><rect class="cls-1" x="97.02" y="121.05" width="13.85" height="13.85"/><path class="cls-1" d="M18.13,120.38c2.8,1.22,9.48,3.17,21.08,1.29l6.86,12.07s-15,1.71-19.79,1Z"/><path class="cls-1" d="M22.57,127.12c-2.13-2.19-6.31-7.75-8.64-19.27L.22,105.69s3.68,14.62,6,18.86Z"/><path class="cls-1" d="M47.37,80.81c1.34,2.74,3.6,9.34,2.25,21L62,108.12s1-15.05.09-19.81Z"/><rect class="cls-1" x="46.25" y="77.2" width="13.85" height="13.85"/><rect class="cls-1" x="60.09" y="77.2" width="13.85" height="13.85"/><rect class="cls-1" x="73.94" y="77.2" width="13.85" height="13.85"/><rect class="cls-1" x="87.79" y="77.2" width="13.85" height="13.85"/><rect class="cls-1" x="97.02" y="77.2" width="13.85" height="13.85"/><path class="cls-1" d="M18.13,91.72c2.8-1.22,9.48-3.17,21.08-1.29l6.86-12.07s-15-1.72-19.79-1Z"/><path class="cls-1" d="M22.57,85c-2.13,2.19-6.31,7.75-8.64,19.27L.22,106.41s3.68-14.62,6-18.86Z"/><rect class="cls-1" x="13.85" y="416.1" width="13.85" height="13.85"/><rect class="cls-1" y="416.1" width="13.85" height="13.85"/><rect class="cls-1" x="27.7" y="416.1" width="13.85" height="13.85"/><rect class="cls-1" x="41.55" y="416.1" width="13.85" height="13.85"/><rect class="cls-1" x="55.39" y="416.1" width="13.85" height="13.85"/><rect class="cls-1" x="69.24" y="416.1" width="13.85" height="13.85"/><rect class="cls-1" x="83.09" y="416.1" width="13.85" height="13.85"/><rect class="cls-1" x="96.94" y="416.1" width="13.85" height="13.85"/><path class="cls-1" d="M15.92,389.16c-1.46,2.68-4,9.17-3.15,20.89L.14,415.82S-.24,400.74.9,396Z"/><path class="cls-1" d="M40.85,391.64c1.4,2.72,3.79,9.26,2.67,20.95L56,418.65s.72-15.07-.3-19.81Z"/><path class="cls-1" d="M9.32,395.45c2-2.31,7.18-7,18.45-10.28l1-13.85S14.49,376.26,10.46,379Z"/><path class="cls-1" d="M46.5,397.19c-1.85-2.42-6.74-7.39-17.8-11.39l-.11-13.88s13.92,5.8,17.77,8.76Z"/><path class="cls-1" d="M93.12,390.61c1.66,2.56,4.68,8.83,4.72,20.59l13,4.78s-.77-15.06-2.26-19.68Z"/><path class="cls-1" d="M61.07,394.93c2-2.31,7.16-7,18.42-10.34l.92-13.84s-14.24,5-18.25,7.72Z"/><path class="cls-1" d="M52.47,409.25c.79-2.95,3.43-9.4,12.13-17.29l-5.16-12.89s-10.68,10.65-13.11,14.85Z"/><path class="cls-1" d="M98.52,395.74c-1.9-2.38-6.88-7.25-18-11.05l-.37-13.87s14,5.53,17.92,8.42Z"/><path class="cls-1" d="M22.52,339.47c2.45,1.74,8.49,5,20.07,5.55l4.14,13.05s-14.8-1.42-19.29-3.09Z"/><path class="cls-1" d="M68.61,348.26c3-.18,9.76-1.45,19.1-8.29l11.43,7.54s-12.4,8.2-17,9.72Z"/><path class="cls-1" d="M69,348.2c-2.92.74-9.73,1.59-20.73-2.07l-8.57,10.68s14.32,4,19.1,4.08Z"/><path class="cls-1" d="M26,342.88c-2.24-2-6.75-7.19-9.84-18.35L2.54,323.36s4.65,14.13,7.26,18.13Z"/><path class="cls-1" d="M85.28,341.53c2.46-1.73,7.54-6.35,11.92-17.08l13.67.43s-6.26,13.49-9.32,17.17Z"/><path class="cls-1" d="M22.52,306.85c2.45-1.75,8.49-5,20.07-5.55l4.14-13.05s-14.8,1.42-19.29,3.09Z"/><path class="cls-1" d="M68.61,298.06c3,.19,9.76,1.45,19.1,8.3l11.43-7.55s-12.4-8.2-17-9.72Z"/><path class="cls-1" d="M69,298.12c-2.92-.75-9.73-1.6-20.73,2.06l-8.57-10.67s14.32-4,19.1-4.08Z"/><path class="cls-1" d="M26,303.44c-2.24,2-6.75,7.19-9.84,18.35L2.54,323s4.65-14.12,7.26-18.13Z"/><path class="cls-1" d="M85.28,304.79c2.46,1.72,7.54,6.34,11.92,17.08l13.67-.43s-6.26-13.49-9.32-17.17Z"/><path class="cls-1" d="M15.77,315.06a24.15,24.15,0,0,1,7.41-2.1,18.08,18.08,0,0,1,10,2.48,11.68,11.68,0,0,1,5,8.28c.26,3.4-2.89,4.57-7,7.06s-7.89-3.72-2.5-4.14,2.89-4.57,2.89-4.57S23.61,318.36,22,325c-2.46,10,7.9,10.77,7.9,10.77S55.52,331,38.1,309.62c-6.5-8-19.14-6.62-28.18-4.27Z"/><path class="cls-1" d="M85.15,231.78c2.6-1.55,8.91-4.29,20.51-3.89l5.21-12.69s-14.9.19-19.51,1.49Z"/><path class="cls-1" d="M74.75,224.32c-3.88,2.83-13.24,14.42-13.24,14.42l13.2,3.74c6.86-9.36,12.92-12.63,15.73-13.71Z"/><rect class="cls-1" x="73.32" y="261.88" width="13.68" height="13.68"/><rect class="cls-1" x="83.2" y="261.88" width="13.68" height="13.68"/><rect class="cls-1" x="59.63" y="261.88" width="13.68" height="13.68"/><rect class="cls-1" x="45.95" y="261.88" width="13.68" height="13.68"/><rect class="cls-1" x="32.26" y="261.88" width="13.68" height="13.68"/><rect class="cls-1" x="20.1" y="261.88" width="13.68" height="13.68"/><rect class="cls-1" x="8.7" y="261.88" width="13.68" height="13.68"/><rect class="cls-1" x="1.09" y="261.88" width="13.68" height="13.68"/><rect class="cls-1" x="96.88" y="261.88" width="13.68" height="13.68"/><path class="cls-1" d="M19.38,238.23c-1.71,2.48-4.88,8.59-5.27,20.19l-13,4.35s1.21-14.86,2.82-19.38Z"/><path class="cls-1" d="M16.34,241.31c2-2.21,7.32-6.64,18.56-9.54l1.41-13.65s-14.24,4.41-18.3,7Z"/><path class="cls-1" d="M55.49,242.24c-1.94-2.3-7-7-18.09-10.42l-.76-13.7s14,5.08,17.94,7.83Z"/><path class="cls-1" d="M54.64,240.21a24.48,24.48,0,0,1,1.93,7.47,18.18,18.18,0,0,1-2.71,9.92,11.69,11.69,0,0,1-8.41,4.8c-3.43.19-4.51-3-6.92-7.21s3.91-7.82,4.21-2.41,4.51,3,4.51,3,3.91-7.82-2.71-9.62c-9.91-2.71-11,7.66-11,7.66s4.19,25.83,26,8.88c8.15-6.34,7.08-19,5-28.14Z"/><path class="cls-1" d="M16.52,49.38c-1.32-2.7-3.55-9.2-2.21-20.7L2.12,22.47S1.11,37.3,2,42Z"/><path class="cls-1" d="M43.49,43.55c1.19-2.76,3.12-9.35,1.26-20.77L56.65,16s1.69,14.77,1,19.5Z"/><path class="cls-1" d="M9.23,37.79c2,2.19,7.31,6.59,18.53,9.46l1.44,13.6S15,56.5,10.94,54Z"/><path class="cls-1" d="M50.12,39.17c-2.16,2.1-7.64,6.22-19,8.52L29,61.2s14.41-3.64,18.59-6Z"/><path class="cls-1" d="M88.74,11.31c2.1,2.14,6.26,7.61,8.6,19l13.53,2.07s-3.7-14.4-6.05-18.57Z"/><path class="cls-1" d="M90.18,54.77c1.95-2.28,5.74-8,7.34-19.47l13.35-2.95s-2.74,14.61-4.8,18.92Z"/><path class="cls-1" d="M52.33,25.16c2.28-2,8-5.76,19.46-7.39L74.7,4.4S60.1,7.18,55.79,9.27Z"/><path class="cls-1" d="M98,23.94c-2.39-1.83-8.31-5.3-19.85-6.26L74.52,4.51S89.25,6.45,93.67,8.27Z"/><path class="cls-1" d="M13.35,22.53a24.35,24.35,0,0,1,1.92-7.46,18,18,0,0,1,7.14-7.35,11.67,11.67,0,0,1,9.67-.14c3.08,1.49,2.48,4.8,2.55,9.63s-7.18,4.94-4.83.07-2.48-4.8-2.48-4.8-7.18,4.94-2.28,9.7c7.36,7.14,13.27-1.41,13.27-1.41S47.1-3.79,19.9.5C9.74,2.1,4.54,13.7,2,22.68Z"/><path class="cls-1" d="M92,52.14a24,24,0,0,1-5,5.9,18,18,0,0,1-9.61,3.56,11.69,11.69,0,0,1-8.78-4c-2.13-2.67-.17-5.4,1.85-9.79s8.61-1.36,4.39,2,.18,5.4.18,5.4,8.6-1.36,6.24-7.77C77.79,37.81,68.77,43,68.77,43S50.24,61.32,76.64,69.19c9.85,2.94,19.54-5.28,25.7-12.29Z"/></g></g></svg>