<svg xmlns="http://www.w3.org/2000/svg" viewBox="0 0 155.26 267.21"><defs><style>.cls-1{fill:#010101;}</style></defs><title>edges_lower</title><g id="Layer_2" data-name="Layer 2"><g id="_3_-_Imagem" data-name="3 - Imagem"><path class="cls-1" d="M54.87,261c-3.88-3.11-13-15.54-13-15.54l13.83-3.26c6.66,10,12.78,13.68,15.64,14.94Z"/><path class="cls-1" d="M68.35,257.11c2.87-1.25,9-4.89,15.68-14.9l13.82,3.3S88.67,257.92,84.79,261Z"/><path class="cls-1" d="M46.57,225.75c-2.08,4.52-4.73,19.73-4.73,19.73l13.83-3.26c1.5-11.94,5.35-17.94,7.35-20.33Z"/><path class="cls-1" d="M61.48,252.11C64,256.39,75,267.21,75,267.21L80.21,254c-9-8-11.74-14.58-12.57-17.59Z"/><path class="cls-1" d="M76.74,221.86c2,2.4,5.83,8.41,7.29,20.35l13.83,3.3s-2.61-15.22-4.68-19.73Z"/><path class="cls-1" d="M55.56,91.1c-3.87-3.11-13-15.55-13-15.55L56.37,72.3C63,82.31,69.15,86,72,87.23Z"/><path class="cls-1" d="M69.05,87.18c2.86-1.24,9-4.89,15.67-14.89l13.82,3.29S89.37,88,85.48,91.1Z"/><path class="cls-1" d="M47.27,55.83c-2.09,4.51-4.74,19.72-4.74,19.72L56.37,72.3C57.86,60.35,61.71,54.35,63.71,52Z"/><path class="cls-1" d="M62.18,82.19c2.53,4.27,13.55,15.09,13.55,15.09L80.9,84.05c-9-8-11.74-14.59-12.57-17.6Z"/><path class="cls-1" d="M77.43,51.93c2,2.41,5.83,8.42,7.3,20.36l13.82,3.29s-2.61-15.22-4.68-19.73Z"/><path class="cls-1" d="M70,42.58C67.29,41,61.61,36.72,56.08,26L42,27.77s7.74,13.36,11.26,16.87Z"/><path class="cls-1" d="M78.53,21.35C77.89,26.28,72,40.56,72,40.56l-10-10.12c5.09-10.9,5-18,4.6-21.12Z"/><path class="cls-1" d="M57.29,0c-1.4,2.8-3.77,9.51-2.49,21.48L42.08,27.82s-.91-15.41.08-20.28Z"/><path class="cls-1" d="M82.82,44.29c1.42-2.78,3.85-9.48,2.67-21.46l12.78-6.22S99.05,32,98,36.89Z"/><path class="cls-1" d="M67.6,8.36c3,.93,9.48,3.86,17.25,13l13.37-4.82S87.7,5.28,83.49,2.63Z"/><rect class="cls-1" x="84.28" y="163.06" width="14.18" height="14.18"/><rect class="cls-1" x="28.35" y="163.06" width="14.18" height="14.18"/><rect class="cls-1" x="37.02" y="163.06" width="14.18" height="14.18"/><rect class="cls-1" x="14.18" y="163.06" width="14.18" height="14.18"/><rect class="cls-1" y="163.21" width="14.18" height="14.18"/><rect class="cls-1" x="76.4" y="163.06" width="14.18" height="14.18"/><rect class="cls-1" x="62.22" y="163.06" width="14.18" height="14.18"/><rect class="cls-1" x="48.05" y="163.06" width="14.18" height="14.18"/><path class="cls-1" d="M57.25,195.35C55.76,192.61,53.16,186,54,174l-12.93-5.9s-.39,15.44.78,20.26Z"/><path class="cls-1" d="M82.78,193.61c1.43-2.78,3.88-9.47,2.73-21.45L98.3,166S99,181.39,98,186.25Z"/><path class="cls-1" d="M50.5,189.7c2,2.37,7.34,7.12,18.89,10.53l1,14.17s-14.59-5.05-18.71-7.83Z"/><path class="cls-1" d="M88.56,188.71c-1.9,2.48-6.9,7.56-18.22,11.65l-.11,14.21s14.25-5.94,18.19-9Z"/><rect class="cls-1" x="107.77" y="104.57" width="14.18" height="14.18"/><rect class="cls-1" x="96.75" y="104.57" width="14.18" height="14.18"/><rect class="cls-1" x="51.85" y="104.57" width="14.18" height="14.18"/><rect class="cls-1" x="43.19" y="104.57" width="14.18" height="14.18"/><rect class="cls-1" x="66.03" y="104.57" width="14.18" height="14.18"/><rect class="cls-1" x="80.21" y="104.57" width="14.18" height="14.18"/><rect class="cls-1" x="88.87" y="104.57" width="14.18" height="14.18"/><path class="cls-1" d="M59.48,136.71c-1.49-2.74-4.09-9.38-3.22-21.38l-12.93-5.9s-.39,15.44.78,20.27Z"/><path class="cls-1" d="M85,135c1.43-2.78,3.88-9.47,2.73-21.44l12.79-6.2s.74,15.42-.31,20.28Z"/><path class="cls-1" d="M52.73,131.07c2,2.36,7.35,7.12,18.89,10.52l1,14.18S58,150.71,53.9,147.93Z"/><path class="cls-1" d="M90.79,129.29c-1.9,2.48-6.9,7.56-18.22,11.65l-.11,14.2s14.25-5.93,18.19-9Z"/><path class="cls-1" d="M118.81,118.15c3.11.24,10.1,1.69,19.67,9l12-7.61s-12.73-8.75-17.41-10.41Z"/><path class="cls-1" d="M142.21,149.88c.74-3,1.54-10.13-2.39-21.5l11-9s4.34,14.82,4.46,19.79Z"/></g></g></svg>