<svg xmlns="http://www.w3.org/2000/svg" viewBox="0 0 112.69 452.22"><defs><style>.cls-1{fill:#010101;}</style></defs><title>kanten_upper</title><g id="Layer_2" data-name="Layer 2"><g id="_3_-_Alfabeto" data-name="3 - Alfabeto"><rect class="cls-1" x="74.26" y="301.79" width="13.83" height="13.83"/><rect class="cls-1" x="85.01" y="301.79" width="13.83" height="13.83"/><rect class="cls-1" x="60.43" y="301.79" width="13.83" height="13.83"/><rect class="cls-1" x="46.6" y="301.79" width="13.83" height="13.83"/><rect class="cls-1" x="32.77" y="301.79" width="13.83" height="13.83"/><rect class="cls-1" x="20.48" y="301.79" width="13.83" height="13.83"/><rect class="cls-1" x="8.95" y="301.79" width="13.83" height="13.83"/><rect class="cls-1" x="2.04" y="301.79" width="13.83" height="13.83"/><rect class="cls-1" x="98.84" y="301.79" width="13.83" height="13.83"/><rect class="cls-1" x="75.03" y="241.09" width="13.83" height="13.83"/><rect class="cls-1" x="85.01" y="241.09" width="13.83" height="13.83"/><rect class="cls-1" x="61.2" y="241.09" width="13.83" height="13.83"/><rect class="cls-1" x="47.37" y="241.09" width="13.83" height="13.83"/><rect class="cls-1" x="33.54" y="241.09" width="13.83" height="13.83"/><rect class="cls-1" x="21.24" y="241.09" width="13.83" height="13.83"/><rect class="cls-1" x="9.72" y="241.09" width="13.83" height="13.83"/><rect class="cls-1" x="2.04" y="241.09" width="13.83" height="13.83"/><rect class="cls-1" x="98.84" y="241.09" width="13.83" height="13.83"/><path class="cls-1" d="M50.91,293.14c1.64-2.56,6.08-7.92,16.73-12.83l-1.07-13.83s-13.36,7-16.93,10.23Z"/><path class="cls-1" d="M95.38,268.25c1.76-2.49,6.44-7.63,17.31-12.05l-.41-13.86s-13.67,6.33-17.39,9.42Z"/><path class="cls-1" d="M39,282.53c-4.74,1-18.17,7.82-18.17,7.82l10.61,8.91c10.21-5.8,17.14-6.29,20.19-6.13Z"/><path class="cls-1" d="M6.16,299.62c3.52-3.33,16.78-10.49,16.78-10.49l1.27,13.81C13.63,308,9.27,313.44,7.68,316Z"/><path class="cls-1" d="M83.32,258.24c-4.7,1.18-17.86,8.5-17.86,8.5l11,8.5c10-6.17,16.89-6.94,19.94-6.89Z"/><rect class="cls-1" x="74.26" y="60.7" width="13.83" height="13.83"/><rect class="cls-1" x="85.01" y="60.7" width="13.83" height="13.83"/><rect class="cls-1" x="60.43" y="60.7" width="13.83" height="13.83"/><rect class="cls-1" x="46.6" y="60.7" width="13.83" height="13.83"/><rect class="cls-1" x="32.77" y="60.7" width="13.83" height="13.83"/><rect class="cls-1" x="20.48" y="60.7" width="13.83" height="13.83"/><rect class="cls-1" x="8.95" y="60.7" width="13.83" height="13.83"/><rect class="cls-1" x="2.04" y="60.7" width="13.83" height="13.83"/><rect class="cls-1" x="98.84" y="60.7" width="13.83" height="13.83"/><rect class="cls-1" x="75.03" width="13.83" height="13.83"/><rect class="cls-1" x="85.01" width="13.83" height="13.83"/><rect class="cls-1" x="61.2" width="13.83" height="13.83"/><rect class="cls-1" x="47.37" width="13.83" height="13.83"/><rect class="cls-1" x="33.54" width="13.83" height="13.83"/><rect class="cls-1" x="21.24" width="13.83" height="13.83"/><rect class="cls-1" x="9.72" width="13.83" height="13.83"/><rect class="cls-1" x="2.04" width="13.83" height="13.83"/><rect class="cls-1" x="98.84" width="13.83" height="13.83"/><path class="cls-1" d="M50.91,52.05c1.64-2.56,6.08-7.92,16.73-12.84L66.57,25.39s-13.36,7-16.93,10.23Z"/><path class="cls-1" d="M95.38,27.16c1.76-2.49,6.44-7.63,17.31-12l-.41-13.86S98.61,7.58,94.89,10.67Z"/><path class="cls-1" d="M39,41.44c-4.74,1-18.17,7.82-18.17,7.82l10.61,8.91C41.6,52.37,48.53,51.88,51.58,52Z"/><path class="cls-1" d="M6.16,58.53C9.68,55.2,22.94,48,22.94,48l1.27,13.81C13.63,66.93,9.27,72.35,7.68,74.94Z"/><path class="cls-1" d="M83.32,17.15c-4.7,1.18-17.86,8.5-17.86,8.5l11,8.5c10-6.18,16.89-6.94,19.94-6.89Z"/><rect class="cls-1" x="26.73" y="438.43" width="13.77" height="13.77"/><rect class="cls-1" x="16.02" y="438.43" width="13.77" height="13.77"/><rect class="cls-1" x="40.5" y="438.43" width="13.77" height="13.77"/><rect class="cls-1" x="54.26" y="438.43" width="13.77" height="13.77"/><rect class="cls-1" x="68.03" y="438.43" width="13.77" height="13.77"/><rect class="cls-1" x="80.27" y="438.43" width="13.77" height="13.77"/><rect class="cls-1" x="94.03" y="438.43" width="13.77" height="13.77"/><rect class="cls-1" x="98.62" y="438.43" width="13.77" height="13.77"/><rect class="cls-1" x="2.25" y="438.43" width="13.77" height="13.77"/><path class="cls-1" d="M86.82,409.67c2.61-1.55,9-4.31,20.63-3.91L112.69,393s-15,.19-19.63,1.5Z"/><path class="cls-1" d="M77.88,402.17C74,405,64.56,416.68,64.56,416.68l13.28,3.76c6.9-9.42,13-12.7,15.83-13.8Z"/><path class="cls-1" d="M55.07,431.05c1.85-4.46,11-16.36,11-16.36l6.79,12c-7.54,8.93-9.29,15.63-9.69,18.63Z"/><path class="cls-1" d="M37.87,408.29c3.9,2.84,13.32,14.51,13.32,14.51l-13.28,3.76c-6.9-9.42-13-12.71-15.83-13.8Z"/><path class="cls-1" d="M61.45,437.93c-1.84-4.46-11-16.36-11-16.36l-6.78,12c7.53,8.92,9.28,15.62,9.68,18.63Z"/><path class="cls-1" d="M29,415a24.25,24.25,0,0,0-7.36-2.48,18.18,18.18,0,0,0-10.15,2,11.76,11.76,0,0,0-5.44,8.08C5.6,426,8.73,427.29,12.77,430s8.13-3.34,2.72-4-2.67-4.74-2.67-4.74,8.13-3.35,9.44,3.42c2,10.15-8.5,10.43-8.5,10.43s-25.6-6.11-7-26.73c7-7.7,19.62-5.69,28.59-2.87Z"/><path class="cls-1" d="M49.19,379.75c1.34-2.74,3.6-9.34,2.25-21l12.37-6.3s1,15.05.09,19.81Z"/><rect class="cls-1" x="48.07" y="369.51" width="13.85" height="13.85"/><rect class="cls-1" x="61.92" y="369.51" width="13.85" height="13.85"/><rect class="cls-1" x="75.77" y="369.51" width="13.85" height="13.85"/><rect class="cls-1" x="89.61" y="369.51" width="13.85" height="13.85"/><rect class="cls-1" x="98.85" y="369.51" width="13.85" height="13.85"/><path class="cls-1" d="M20,368.84c2.8,1.22,9.48,3.17,21.08,1.29l6.86,12.07s-15,1.72-19.79,1Z"/><path class="cls-1" d="M24.39,375.58c-2.13-2.19-6.31-7.75-8.64-19.27L2,354.15s3.68,14.62,6,18.86Z"/><path class="cls-1" d="M49.19,329.28c1.34,2.73,3.6,9.33,2.25,21l12.37,6.3s1-15.05.09-19.81Z"/><rect class="cls-1" x="48.07" y="325.66" width="13.85" height="13.85"/><rect class="cls-1" x="61.92" y="325.66" width="13.85" height="13.85"/><rect class="cls-1" x="75.76" y="325.66" width="13.85" height="13.85"/><rect class="cls-1" x="89.61" y="325.66" width="13.85" height="13.85"/><rect class="cls-1" x="98.85" y="325.66" width="13.85" height="13.85"/><path class="cls-1" d="M20,340.18C22.75,339,29.43,337,41,338.89l6.86-12.07s-15-1.71-19.79-1Z"/><path class="cls-1" d="M24.39,333.44c-2.13,2.19-6.31,7.75-8.64,19.27L2,354.87s3.68-14.62,6-18.86Z"/><rect class="cls-1" x="27.62" y="181.7" width="13.92" height="13.92"/><rect class="cls-1" x="16.79" y="181.7" width="13.92" height="13.92"/><rect class="cls-1" x="41.54" y="181.7" width="13.92" height="13.92"/><rect class="cls-1" x="55.46" y="181.7" width="13.92" height="13.92"/><rect class="cls-1" x="69.39" y="181.7" width="13.92" height="13.92"/><rect class="cls-1" x="83.31" y="181.7" width="13.92" height="13.92"/><rect class="cls-1" x="97.23" y="181.7" width="13.92" height="13.92"/><rect class="cls-1" x="98.77" y="181.7" width="13.92" height="13.92"/><rect class="cls-1" x="3.65" y="181.7" width="13.92" height="13.92"/><path class="cls-1" d="M16.75,146c-1.25,2.8-3.28,9.51-1.49,21.18L3.06,174s-1.58-15.09-.81-19.9Z"/><path class="cls-1" d="M18.35,195.9c-1.38-2.74-3.71-9.34-2.48-21.09l-12.49-6.2s-.88,15.13.11,19.91Z"/><path class="cls-1" d="M16.75,231.48c-1.25-2.8-3.28-9.51-1.49-21.19l-12.2-6.78s-1.58,15.08-.81,19.9Z"/><path class="cls-1" d="M18.35,181.62c-1.38,2.73-3.71,9.34-2.48,21.09l-12.49,6.2S2.5,193.77,3.49,189Z"/></g><g id="_3_-_Imagem" data-name="3 - Imagem"><path class="cls-1" d="M18.4,135.15c-1.4-2.68-3.8-9.14-2.78-20.73l-12.4-5.9s-.61,14.92.43,19.6Z"/><path class="cls-1" d="M17.32,84.56c-1.29,2.73-3.42,9.29-1.9,20.82L3.27,111.8S2,96.92,2.88,92.19Z"/><path class="cls-1" d="M97.45,135.3c1.35-2.7,3.64-9.2,2.42-20.77l12.3-6.12s.88,14.9-.09,19.61Z"/><path class="cls-1" d="M97.71,84.7c1.33,2.71,3.58,9.23,2.27,20.78l12.26,6.21s1-14.9.06-19.61Z"/><rect class="cls-1" x="26.2" y="122.72" width="13.71" height="13.71"/><rect class="cls-1" x="16.3" y="122.72" width="13.71" height="13.71"/><rect class="cls-1" x="3.35" y="122.72" width="13.71" height="13.71"/><rect class="cls-1" x="39.91" y="122.72" width="13.71" height="13.71"/><rect class="cls-1" x="53.62" y="122.72" width="13.71" height="13.71"/><rect class="cls-1" x="67.33" y="122.72" width="13.71" height="13.71"/><rect class="cls-1" x="79.51" y="122.72" width="13.71" height="13.71"/><rect class="cls-1" x="93.22" y="122.72" width="13.71" height="13.71"/><rect class="cls-1" x="98.55" y="122.72" width="13.71" height="13.71"/><path class="cls-1" d="M45.41,124.05a24.12,24.12,0,0,0,7.48-1.93A18.1,18.1,0,0,0,60.28,115a11.74,11.74,0,0,0,.15-9.71c-1.5-3.09-4.82-2.5-9.68-2.57s-5,7.21-.06,4.85,4.82,2.5,4.82,2.5-5,7.21-9.74,2.29C38.59,104.92,47.17,99,47.17,99s24.68-8.83,20.36,18.5c-1.61,10.21-13.27,15.43-22.28,18Z"/></g></g></svg>